<?xml version="1.0" encoding="UTF-8"?>
<svg width="292px" height="74px" viewBox="0 0 292 74" version="1.1" xmlns="http://www.w3.org/2000/svg" xmlns:xlink="http://www.w3.org/1999/xlink">
    <title>logo-binusuniv-binusmaya</title>
    <g id="Page-1" stroke="none" stroke-width="1" fill="none" fill-rule="evenodd">
        <g id="web-binusmaya-login-page-1" transform="translate(-74.000000, -16.000000)">
            <g id="logo-binusuniv-binusmaya" transform="translate(74.000000, 16.000000)">
                <g id="logo-binusmaya-header" transform="translate(156.000000, 49.000000)">
                    <path d="M47.5847304,0.256834783 L47.5847304,10.9173565 C47.5847304,13.2039652 48.4887304,14.6137043 50.5092522,14.6137043 C52.5297739,14.6137043 53.3805565,13.2039652 53.3805565,10.9173565 L53.3805565,0.256834783 L58.6438609,0.256834783 L58.6438609,10.9173565 C58.6438609,16.8192696 55.1085565,19.1590957 50.4292522,19.1590957 C45.7506435,19.1590957 42.3210783,16.8192696 42.3210783,10.9173565 L42.3210783,0.256834783 L47.5847304,0.256834783 Z M67.3853217,0 C70.542887,0 72.822887,0.76973913 74.7856696,2.14852174 L72.2931478,6.18017391 C70.6479304,5.06608696 69.0037565,4.42956522 67.1209739,4.42956522 C65.5825391,4.42956522 65.210713,4.90713043 65.210713,5.57008696 C65.210713,6.20358167 65.7708152,6.5236894 67.7139272,7.00407465 L68.2611478,7.13530435 C72.9293217,8.24869565 74.9981913,9.6813913 74.9981913,13.1558261 C74.9981913,17.3989565 71.7891478,19.1502609 67.3334957,19.1502609 C64.3359304,19.1502609 61.4448,18.168 59.5084522,16.8956522 L62.0020174,12.8636522 C63.3543652,13.7923478 65.7150609,14.7203478 67.4392348,14.7203478 C69.2688,14.7203478 69.8524522,14.4024348 69.8524522,13.5273043 C69.8524522,12.837913 69.1898435,12.4132174 66.6959304,11.8288696 L66.2555271,11.7247888 C62.0733438,10.711016 60.0656696,9.4512 60.0656696,5.86226087 C60.0656696,2.36069565 62.9032348,0 67.3853217,0 Z M8.96486957,0.297286957 C13.5794783,0.297286957 15.4626087,2.02111304 15.4626087,5.12476522 C15.4626087,7.14076522 14.4813913,8.04163478 13.2347826,8.75815652 C14.906087,9.47502609 15.8873043,10.7738087 15.8873043,12.869113 C15.8873043,16.6618087 13.5794783,18.8628522 8.91165217,18.8628522 L0,18.8628522 L0,0.297286957 L8.96486957,0.297286957 Z M22.5112348,0.256869565 L22.5112348,18.8227826 L17.2594087,18.8227826 L17.2594087,0.256869565 L22.5112348,0.256869565 Z M24.2704696,0.256904348 L28.8054261,0.256904348 L32.8902957,5.74733913 C33.7389913,6.88751304 35.383513,9.35464348 35.7814261,10.1222957 C35.6534776,9.33149372 35.6242259,7.014763 35.6222346,5.49440328 L35.6221217,0.256904348 L40.555687,0.256904348 L40.555687,18.8228174 L36.3647304,18.8228174 L31.9351652,12.6965565 C31.1129043,11.555687 29.5219478,9.16855652 29.0443826,8.34664348 C29.16741,9.10767407 29.1988885,11.2789152 29.2028769,12.796403 L29.2033391,18.8228174 L24.2704696,18.8228174 L24.2704696,0.256904348 Z M9.01773913,11.1985043 L4.93321739,11.1985043 L4.93321739,14.805113 L8.99095652,14.805113 C10.2643478,14.805113 10.848,14.0360696 10.848,12.9748522 C10.848,11.8878957 10.2375652,11.1985043 9.01773913,11.1985043 Z M8.80556522,4.35606957 L4.93321739,4.35606957 L4.93321739,7.27328696 L8.80556522,7.27328696 C9.99895652,7.27328696 10.4236522,6.68963478 10.4236522,5.81415652 C10.4236522,4.99154783 10.0257391,4.35606957 8.80556522,4.35606957 Z" id="Shape" fill="#000000"></path>
                    <path d="M81.5039652,2.13547826 L85.7540522,10.9090435 L90.0399652,2.13547826 L93.2277913,2.13547826 L94.3070957,15.6652174 C94.3292495,15.9686288 94.4705451,16.1517129 94.7501327,16.1780843 L94.8229217,16.1813913 L95.496313,16.1813913 C95.8686725,16.1813913 96.0568108,16.0998856 96.1947732,15.7454217 L101.171443,2.13547826 L104.382922,2.13547826 L105.421479,5.27584541 C106.670535,9.00709179 108.761588,15.1018551 110.0664,18.0892174 C111.178621,20.6345455 113.772102,21.1245801 115.110081,21.1682649 L115.201357,21.1706087 L115.201357,21.1626087 L115.31552,21.1656747 C115.442946,21.1674997 115.634081,21.1674997 115.761293,21.1656747 L115.875096,21.1626087 L115.875096,21.1706087 L116.061678,21.1644727 C117.423857,21.1006762 119.923665,20.5753518 121.009357,18.0892174 C122.273842,15.1952101 124.275762,9.38497992 125.535178,5.63240717 L126.693183,2.13547826 L129.905357,2.13547826 L134.85353,15.6652174 L135.929357,18.7841739 L135.929357,18.7841739 L135.559624,18.7823734 C134.363461,18.765339 132.696588,18.5872277 131.910445,16.7256172 L131.848661,16.5709565 L130.396835,11.9111304 L128.99127,7.8106087 L128.890514,7.49643993 C128.605109,6.57635936 128.287617,5.32469565 128.287617,5.32469565 L128.1713,5.82416643 C128.049737,6.33281424 127.851015,7.127394 127.664112,7.71008225 L127.63127,7.8106087 L126.199918,11.9895999 C125.986711,12.6554854 124.470475,17.3730435 123.804487,18.9511304 C121.580835,24.2196522 116.373878,23.9069565 115.4984,23.8913043 L115.088945,23.899265 C113.57567,23.9109454 109.261622,23.6650709 107.272661,18.9511304 L107.150954,18.6518072 C106.761539,17.6650343 106.164748,15.9163868 105.665311,14.4144326 L104.763791,11.6572174 L103.44553,7.8106087 L103.344775,7.49643993 C103.059369,6.57635936 102.741878,5.32469565 102.741878,5.32469565 L102.603403,5.91679463 C102.48077,6.42556102 102.29436,7.16166978 102.118095,7.71008225 L102.085183,7.8106087 L100.766574,11.6572174 L98.9196174,17.4241739 C98.5585481,18.440058 98.1755463,18.7605494 97.1003533,18.782896 L96.9731826,18.7841739 L92.9001391,18.7841739 C91.8375801,18.7841739 91.4513028,18.348197 91.3402371,17.3072073 L91.3290087,17.1890435 L90.6688348,7.68956522 L85.7032696,17.0029565 L80.9401391,7.68956522 L79.8977043,19.070087 C79.7430609,20.9436522 78.073473,21.45044 76.746537,21.4964349 L76.5401391,21.5 L78.3150957,2.13547826 L81.5039652,2.13547826 Z M107.744939,2.13516522 L110.275026,2.13516522 C111.31215,2.13516522 111.785535,2.28695323 112.383189,3.23617252 L112.455548,3.35394783 L114.797588,7.24177713 C115.110435,7.77286859 115.364947,8.26756281 115.516228,8.57339457 L115.66807,8.88855652 L115.715374,8.88855652 L115.978535,8.36077303 C116.130658,8.06517825 116.340544,7.67114443 116.586268,7.24658174 L116.723722,7.01238261 L118.904243,3.35394783 C119.490197,2.339901 119.968097,2.14911119 120.962562,2.13593512 L123.631896,2.13516522 L122.796417,4.73794783 L122.117113,4.73794783 C121.6332,4.73794783 121.479144,4.82018288 121.21043,5.21737208 L121.155026,5.30107826 L117.215548,11.5149913 L117.211722,15.9261217 C117.211722,18.3106186 114.957042,18.8983737 114.312848,19.0176406 L114.142852,19.0443826 L114.143896,11.5149913 L110.204417,5.30107826 C109.919091,4.86086087 109.776836,4.75111223 109.334854,4.73911325 L109.24233,4.73794783 L108.592939,4.73794783 L107.744939,2.13516522 Z" id="Shape" fill="#F8B133"></path>
                </g>
                <rect id="Rectangle" fill="#333333" x="139" y="42" width="1" height="32"></rect>
                <g id="logo-binus-university" fill-rule="nonzero">
                    <rect id="Rectangle" fill="#918F8F" x="42.1404969" y="32.9225466" width="1.37385093" height="1.37385093"></rect>
                    <rect id="Rectangle" fill="#918F8F" x="43.7591925" y="32.9225466" width="1.36478261" height="1.37385093"></rect>
                    <rect id="Rectangle" fill="#918F8F" x="45.3688199" y="32.9225466" width="1.37385093" height="1.37385093"></rect>
                    <rect id="Rectangle" fill="#918F8F" x="46.9829814" y="32.9225466" width="1.36931677" height="1.37385093"></rect>
                    <rect id="Rectangle" fill="#918F8F" x="42.1404969" y="31.3355901" width="1.37385093" height="1.37385093"></rect>
                    <rect id="Rectangle" fill="#918F8F" x="43.7591925" y="31.3355901" width="1.36478261" height="1.37385093"></rect>
                    <rect id="Rectangle" fill="#918F8F" x="45.3688199" y="31.3355901" width="1.37385093" height="1.37385093"></rect>
                    <rect id="Rectangle" fill="#918F8F" x="46.9829814" y="31.3355901" width="1.36931677" height="1.37385093"></rect>
                    <rect id="Rectangle" fill="#918F8F" x="50.2067702" y="31.3355901" width="1.37385093" height="1.37385093"></rect>
                    <rect id="Rectangle" fill="#918F8F" x="42.1404969" y="29.7577019" width="1.37385093" height="1.36931677"></rect>
                    <rect id="Rectangle" fill="#918F8F" x="43.7591925" y="29.7577019" width="1.36478261" height="1.36931677"></rect>
                    <rect id="Rectangle" fill="#918F8F" x="46.9829814" y="29.7577019" width="1.36931677" height="1.36931677"></rect>
                    <rect id="Rectangle" fill="#918F8F" x="48.5926087" y="29.7577019" width="1.37385093" height="1.36931677"></rect>
                    <rect id="Rectangle" fill="#918F8F" x="50.2067702" y="29.7577019" width="1.37385093" height="1.36931677"></rect>
                    <rect id="Rectangle" fill="#918F8F" x="43.7591925" y="28.1707453" width="1.36478261" height="1.36931677"></rect>
                    <rect id="Rectangle" fill="#918F8F" x="45.3688199" y="28.1707453" width="1.37385093" height="1.36931677"></rect>
                    <rect id="Rectangle" fill="#918F8F" x="46.9829814" y="28.1707453" width="1.36931677" height="1.36931677"></rect>
                    <rect id="Rectangle" fill="#918F8F" x="48.5926087" y="28.1707453" width="1.37385093" height="1.36931677"></rect>
                    <rect id="Rectangle" fill="#918F8F" x="51.8163975" y="28.1707453" width="1.37838509" height="1.36931677"></rect>
                    <rect id="Rectangle" fill="#918F8F" x="43.7591925" y="26.5928571" width="1.36478261" height="1.37385093"></rect>
                    <rect id="Rectangle" fill="#918F8F" x="45.3688199" y="26.5928571" width="1.37385093" height="1.37385093"></rect>
                    <rect id="Rectangle" fill="#918F8F" x="46.9829814" y="26.5928571" width="1.36931677" height="1.37385093"></rect>
                    <rect id="Rectangle" fill="#918F8F" x="48.5926087" y="26.5928571" width="1.37385093" height="1.37385093"></rect>
                    <rect id="Rectangle" fill="#918F8F" x="50.2067702" y="26.5928571" width="1.37385093" height="1.37385093"></rect>
                    <rect id="Rectangle" fill="#918F8F" x="51.8163975" y="26.5928571" width="1.37838509" height="1.37385093"></rect>
                    <rect id="Rectangle" fill="#918F8F" x="53.430559" y="26.5928571" width="1.37385093" height="1.37385093"></rect>
                    <rect id="Rectangle" fill="#918F8F" x="56.658882" y="26.5928571" width="1.37385093" height="1.37385093"></rect>
                    <rect id="Rectangle" fill="#918F8F" x="46.9829814" y="25.0104348" width="1.36931677" height="1.37385093"></rect>
                    <rect id="Rectangle" fill="#918F8F" x="48.5926087" y="25.0104348" width="1.37385093" height="1.37385093"></rect>
                    <rect id="Rectangle" fill="#918F8F" x="51.8163975" y="25.0104348" width="1.37838509" height="1.37385093"></rect>
                    <rect id="Rectangle" fill="#918F8F" x="55.0447205" y="25.0104348" width="1.37385093" height="1.37385093"></rect>
                    <rect id="Rectangle" fill="#918F8F" x="45.3688199" y="23.4280124" width="1.37385093" height="1.37385093"></rect>
                    <rect id="Rectangle" fill="#918F8F" x="46.9829814" y="23.4280124" width="1.36931677" height="1.37385093"></rect>
                    <rect id="Rectangle" fill="#918F8F" x="48.5926087" y="23.4280124" width="1.37385093" height="1.37385093"></rect>
                    <rect id="Rectangle" fill="#918F8F" x="50.2067702" y="23.4280124" width="1.37385093" height="1.37385093"></rect>
                    <rect id="Rectangle" fill="#918F8F" x="51.8163975" y="23.4280124" width="1.37838509" height="1.37385093"></rect>
                    <rect id="Rectangle" fill="#918F8F" x="55.0447205" y="23.4280124" width="1.37385093" height="1.37385093"></rect>
                    <rect id="Rectangle" fill="#918F8F" x="63.1019255" y="23.4280124" width="1.37838509" height="1.37385093"></rect>
                    <rect id="Rectangle" fill="#918F8F" x="46.9829814" y="21.8410559" width="1.36931677" height="1.37385093"></rect>
                    <rect id="Rectangle" fill="#918F8F" x="50.2067702" y="21.8410559" width="1.37385093" height="1.37385093"></rect>
                    <rect id="Rectangle" fill="#918F8F" x="53.430559" y="21.8410559" width="1.37385093" height="1.37385093"></rect>
                    <rect id="Rectangle" fill="#918F8F" x="56.658882" y="21.8410559" width="1.37385093" height="1.37385093"></rect>
                    <rect id="Rectangle" fill="#918F8F" x="51.8163975" y="20.2586335" width="1.37838509" height="1.37385093"></rect>
                    <rect id="Rectangle" fill="#918F8F" x="55.0447205" y="20.2586335" width="1.37385093" height="1.37385093"></rect>
                    <rect id="Rectangle" fill="#918F8F" x="53.430559" y="18.6807453" width="1.37385093" height="1.37385093"></rect>
                    <rect id="Rectangle" fill="#918F8F" x="56.658882" y="18.6807453" width="1.37385093" height="1.37385093"></rect>
                    <rect id="Rectangle" fill="#918F8F" x="59.8781366" y="18.6807453" width="1.37385093" height="1.37385093"></rect>
                    <rect id="Rectangle" fill="#918F8F" x="51.8163975" y="17.0937888" width="1.37838509" height="1.37385093"></rect>
                    <rect id="Rectangle" fill="#918F8F" x="59.8781366" y="15.5113665" width="1.37385093" height="1.37385093"></rect>
                    <rect id="Rectangle" fill="#918F8F" x="64.716087" y="15.5113665" width="1.37385093" height="1.37385093"></rect>
                    <rect id="Rectangle" fill="#918F8F" x="59.8781366" y="13.9289441" width="1.37385093" height="1.37385093"></rect>
                    <rect id="Rectangle" fill="#918F8F" x="59.8781366" y="12.3465217" width="1.37385093" height="1.37385093"></rect>
                    <rect id="Rectangle" fill="#918F8F" x="61.4968323" y="10.7640994" width="1.36931677" height="1.37385093"></rect>
                    <rect id="Rectangle" fill="#231F20" x="38.381677" y="29.8710559" width="3.50944099" height="1"></rect>
                    <path d="M41.9273913,34.5593789 L47.8218012,34.5593789 C46.1849689,36.3730435 42.3309317,39.4925466 33.6117391,42.5893789 C18.136646,48.0893168 3.01975155,41.4875776 11.8704348,28.9234161 C20.5216149,16.622236 34.2283851,13.7203727 35.6657143,13.5072671 C37.1030435,13.2941615 39.4880124,13.1173292 38.3227329,13.475528 C37.1574534,13.8337267 34.9765217,14.7314907 35.0989441,15.0579503 C35.2213665,15.3844099 36.6496273,15.0307453 37.4521739,14.908323 C38.2547205,14.7859006 38.2637888,15.3617391 37.7831677,15.5975155 C37.3025466,15.8332919 36.921677,15.5975155 37.2163975,15.892236 C37.511118,16.1869565 37.3388199,16.4000621 36.8581988,16.6131677 C36.3775776,16.8262733 35.0445342,16.7265217 34.618323,17.1527329 C34.1921118,17.5789441 35.4526087,17.5653416 36.3503727,17.2071429 C37.003272,16.8872053 37.7182265,16.713883 38.4451553,16.6993168 C39.447205,16.622236 38.4995652,17.2298137 38.9937888,17.4247826 C39.4880124,17.6197516 41.891118,17.1572671 41.2608696,17.5426708 C40.6306211,17.9280745 42.453354,17.9326087 41.1973913,18.2908075 C39.9414286,18.6490062 28.1707453,19.9503106 19.1568323,25.8764596 C10.1429193,31.8026087 8.94136646,44.0131056 24.2895031,40.9797516 C35.4798137,38.7625466 40.1590683,33.6525466 41.8775155,31.0499379 L41.8775155,34.5593789 L41.9273913,34.5593789 Z M35.04,18.3452174 C34.2646584,18.2590683 34.3236025,18.5265839 34.1331677,18.6308696 C33.9427329,18.7351553 34.6409938,18.8847826 35.2395031,18.8621118 C35.8380124,18.839441 35.8380124,18.4359006 35.0626708,18.3452174 M34.4596273,15.5748447 C33.8973913,15.5159006 33.9245963,15.6927329 33.1764596,15.8106211 C32.428323,15.9285093 32.0111801,16.7174534 32.7547826,16.622236 C33.3511722,16.5855557 33.9376567,16.4523333 34.4913665,16.227764 C35.1442857,15.9602484 34.4596273,15.5748447 34.4596273,15.5748447" id="Shape" fill="#918F8F"></path>
                    <path d="M22.3080689,30.378882 C22.3105795,26.3371879 25.5890503,23.0627779 29.6307444,23.0652809 C33.6724385,23.0677867 36.9468489,26.3462571 36.9443465,30.3879512 C36.9418411,34.4296454 33.6633711,37.7040562 29.621677,37.7015542 C27.6804168,37.7015542 25.8187978,36.9297715 24.4469703,35.5562431 C23.0751428,34.1827146 22.3056675,32.3201407 22.3080689,30.378882" id="Path" fill="#F68B1F"></path>
                    <path d="M24.6613043,27.2049689 C24.3423122,26.4817547 24.6692626,25.6368275 25.3919792,25.3167095 C26.1146958,24.9965915 26.9601312,25.3222257 27.2813742,26.044443 C27.6026172,26.7666602 27.2783,27.6126016 26.5565839,27.9349689 C25.8316153,28.2560412 24.9835773,27.9294045 24.6613043,27.2049689" id="Path" fill="#FFFFFF"></path>
                    <path d="M40.9797516,13.4528571 C40.9797516,13.1218634 39.5741615,13.0946584 39.3655901,13.393913 C39.1570186,13.6931677 38.4134161,13.5752795 38.3499379,13.8473292 C38.2864596,14.1193789 38.9801863,14.0559006 39.5741615,13.8201242 C40.1681366,13.5843478 40.9797516,13.7838509 40.9797516,13.4573913" id="Path" fill="#918F8F"></path>
                    <path d="M42.0226087,14.3778261 C41.8185714,14.1420497 40.4401863,14.0513665 40.0230435,14.2554037 C39.6433091,14.4685852 39.2288433,14.6128807 38.7988199,14.6816149 C38.5313043,14.6816149 38.9212422,15.0080745 39.6376398,15.0080745 C40.3540373,15.0080745 40.263354,14.8267081 40.9978882,14.9445963 C41.7324224,15.0624845 42.2493168,14.6181366 42.0407453,14.3778261" id="Path" fill="#918F8F"></path>
                    <path d="M40.0230435,15.6292547 C39.279441,15.8106211 39.1162112,15.9013043 38.7081366,15.9919876 C38.3000621,16.0826708 38.6809317,16.3773913 39.5469565,16.200559 C40.0568302,16.0746182 40.5750405,15.9852194 41.0976398,15.9330435 C41.5193168,15.9013043 41.4558385,15.5159006 40.9480124,15.4796273 C40.6391826,15.4686715 40.3311742,15.5179529 40.0411801,15.6247205" id="Path" fill="#918F8F"></path>
                    <path d="M43.1878882,15.3617391 C42.9611801,15.021677 42.2810559,15.2438509 41.9636646,15.4252174 C41.6462733,15.6065839 41.723354,15.6292547 42.2311801,15.7199379 C42.7390062,15.8106211 43.2014907,15.5159006 43.1878882,15.3617391" id="Path" fill="#918F8F"></path>
                    <path d="M45.0378261,16.0509317 C44.8519255,15.9602484 43.3692547,16.173354 43.1289441,16.1144099 C42.8886335,16.0554658 42.5621739,16.3501863 42.0543478,16.3501863 C41.5465217,16.3501863 40.7439752,16.3819255 41.0386957,16.7083851 C41.3334161,17.0348447 42.6256522,16.8580124 43.1878882,16.7355901 C43.7501242,16.6131677 44.3531677,16.3501863 44.8927329,16.4726087 C45.4322981,16.5950311 45.1149068,16.0690683 45.0378261,16.0509317" id="Path" fill="#918F8F"></path>
                    <rect id="Rectangle" fill="#231F20" x="2.58447205" y="29.8483851" width="18.0323602" height="1"></rect>
                    <rect id="Rectangle" fill="#231F20" x="29.3088199" y="39.9731677" width="1" height="18.0323602"></rect>
                    <rect id="Rectangle" fill="#231F20" x="29.3088199" y="2.58900621" width="1" height="18.0278261"></rect>
                    <rect id="Rectangle" fill="#231F20" x="51.8345342" y="29.8710559" width="52.2471429" height="1"></rect>
                    <path d="M104.027267,30.1975155 C104.027267,29.4713125 104.615971,28.8826087 105.342174,28.8826087 C106.068377,28.8826087 106.657081,29.4713125 106.657081,30.1975155 C106.657081,30.9237185 106.068377,31.5124224 105.342174,31.5124224 C104.615971,31.5124224 104.027267,30.9237185 104.027267,30.1975155" id="Path" fill="#D82C25"></path>
                    <path d="M28.3203727,1.31037267 C28.3228811,0.584176048 28.9136118,-0.00248994854 29.6398084,7.621077e-06 C30.366005,0.00252118245 30.9526734,0.593249508 30.9501787,1.31944615 C30.947668,2.04564279 30.356942,2.63231347 29.6307453,2.62982162 C29.281636,2.62982162 28.9469559,2.49052117 28.700951,2.24281383 C28.4549461,1.99510648 28.3179567,1.65947366 28.3203727,1.31037267" id="Path" fill="#D82C25"></path>
                    <path d="M50.3881366,53.5348447 C50.4603164,54.7435092 49.9997122,55.923186 49.1276398,56.7631677 C48.2842857,57.5279296 47.0041408,57.9103106 45.287205,57.9103106 L38.7761491,57.9103106 L38.7761491,44.3440994 L45.3416149,44.3440994 C47.0147205,44.3440994 48.2298758,44.6478882 48.9689441,45.2509317 C49.7303128,45.901878 50.1430721,46.8716946 50.0843478,47.871677 C50.124419,48.4740288 49.9545823,49.0716619 49.6037267,49.5629193 C49.2823882,49.9540495 48.8920382,50.2829271 48.4520497,50.5332298 C49.0296345,50.7525411 49.5285551,51.1393624 49.8848447,51.6440994 C50.246504,52.2045717 50.424048,52.8640207 50.3926708,53.5303106 M46.3935404,48.3749689 C46.4034984,48.0994998 46.3150982,47.8294775 46.1441615,47.6132298 C45.8978113,47.3733697 45.5559066,47.2582895 45.2146584,47.3003727 L42.3808075,47.3003727 L42.3808075,49.4540994 L45.2101242,49.4540994 C45.5402342,49.4862449 45.8688185,49.379455 46.1169565,49.1593789 C46.2962678,48.9386217 46.3868047,48.6589273 46.3708696,48.3749689 M46.6837267,53.6028571 C46.7231516,53.2413398 46.5941713,52.8817698 46.3339451,52.6277395 C46.0737189,52.3737091 45.7111458,52.2534293 45.3506832,52.3015528 L42.3808075,52.3015528 L42.3808075,54.9359006 L45.3416149,54.9359006 C45.7234548,54.9687115 46.1002517,54.8309399 46.3708696,54.5595652 C46.5938035,54.291753 46.7100511,53.9510828 46.6973292,53.6028571" id="Shape" fill="#231F20"></path>
                    <rect id="Rectangle" fill="#231F20" x="51.8934783" y="44.3440994" width="3.84496894" height="13.5662112"></rect>
                    <path d="M66.5524224,57.9057764 L63.3104969,53.430559 C63.1563354,53.2219876 62.9840373,52.9771429 62.7709317,52.6642857 C62.5578261,52.3514286 62.3537888,52.0567081 62.1588199,51.7574534 L61.5965839,50.8914286 C61.4288199,50.623913 61.2882609,50.4108075 61.1975776,50.256646 C61.2297132,50.4714568 61.2493941,50.6879468 61.2565217,50.9050311 C61.2565217,51.1861491 61.2837267,51.4854037 61.292795,51.8118634 C61.3018634,52.138323 61.292795,52.4829193 61.292795,52.8320497 L61.292795,57.9057764 L57.6881366,57.9057764 L57.6881366,44.3440994 L61.0026087,44.3440994 L63.9906211,48.3522981 C64.1447826,48.5608696 64.3306832,48.8057143 64.5392547,49.1321739 C64.7478261,49.4586335 64.9654658,49.7442857 65.1695031,50.0390062 C65.3735404,50.3337267 65.5639752,50.6420497 65.7317391,50.9095652 C65.8995031,51.1770807 66.0264596,51.3901863 66.0990062,51.5307453 C66.0685863,51.3158239 66.0504203,51.0993457 66.0445963,50.8823602 C66.0445963,50.6057764 66.0173913,50.3019876 65.9992547,49.975528 C65.981118,49.6490683 65.9992547,49.3090062 65.9992547,48.9598758 L65.9992547,44.3440994 L69.603913,44.3440994 L69.603913,57.9057764 L66.5524224,57.9057764 Z" id="Path" fill="#231F20"></path>
                    <path d="M82.8572671,54.863354 C82.3310971,56.2918406 81.1500318,57.3801078 79.683354,57.7878882 C78.9116278,58.0128478 78.1112807,58.1243465 77.3074534,58.118882 C76.5065808,58.1246942 75.7091746,58.0131796 74.9406211,57.7878882 C74.245423,57.5853262 73.606213,57.2253827 73.0725466,56.7359627 C72.5269005,56.2124798 72.1068193,55.5722821 71.8437888,54.863354 C71.5206439,53.984264 71.3667978,53.0519567 71.3903727,52.1156522 L71.3903727,44.3440994 L75.2670807,44.3440994 L75.2670807,52.1156522 C75.2283485,52.8104149 75.4074662,53.4999391 75.779441,54.0880124 C76.1618678,54.5872353 76.7712359,54.8586345 77.3981366,54.8089441 C78.020162,54.8600337 78.624758,54.5877086 78.9986957,54.0880124 C79.3617845,53.4966316 79.5357843,52.8085414 79.4974534,52.1156522 L79.4974534,44.3440994 L83.333354,44.3440994 L83.333354,52.1156522 C83.3571482,53.0519719 83.2032954,53.98432 82.8799379,54.863354" id="Path" fill="#231F20"></path>
                    <path d="M95.911118,53.7434161 C95.9281939,54.4317344 95.7854056,55.1146348 95.4939752,55.7384472 C95.2266751,56.283009 94.8257788,56.7509814 94.3286957,57.0986957 C93.7922518,57.4642327 93.1926748,57.7271242 92.5603727,57.8740373 C91.8176912,58.0498323 91.0564621,58.13509 90.2932919,58.1279503 C89.2167762,58.1336115 88.1459549,57.9714586 87.1193789,57.6473292 C86.2138469,57.3744274 85.3491375,56.9809618 84.5485093,56.4775155 L86.3621739,53.5303106 C86.6346042,53.7194978 86.9228345,53.884851 87.2236646,54.0245342 C87.5561598,54.1986528 87.9000258,54.3501356 88.2529193,54.4779503 C88.6034651,54.6069214 88.9625231,54.7114573 89.3275155,54.7908075 C89.6579965,54.8652026 89.9953716,54.904715 90.3340994,54.9086957 C90.8040427,54.9420619 91.2756678,54.8740242 91.7170186,54.7091925 C91.9733476,54.5859139 92.1267591,54.3169925 92.1024224,54.0336025 C92.1011824,53.9090707 92.0633384,53.7876545 91.9936025,53.684472 C91.891302,53.5586512 91.7628981,53.4565468 91.6172671,53.3852174 C91.393187,53.2642657 91.1577981,53.1655543 90.914472,53.0904969 C90.6197516,52.9998137 90.2434161,52.895528 89.79,52.7912422 C89.0699643,52.6264749 88.3599603,52.4205888 87.6634783,52.1745963 C87.1145855,51.9895507 86.6021223,51.7103043 86.1490683,51.3493789 C85.7553893,51.028658 85.4444077,50.6181623 85.242236,50.1523602 C85.0293455,49.605104 84.9276141,49.0209187 84.9429814,48.433913 C84.9380087,47.8313809 85.0665308,47.2352243 85.3193168,46.6882609 C85.5740512,46.1606475 85.9426068,45.6960817 86.3984472,45.3280124 C86.9153594,44.9201084 87.5067292,44.6167234 88.1395652,44.4347826 C88.8550859,44.2173083 89.5999306,44.1117759 90.3477019,44.1219255 C91.3736934,44.1028173 92.396591,44.2404268 93.3810559,44.53 C94.2268069,44.7954379 95.0277567,45.1867417 95.7569565,45.6907453 L93.9432919,48.6379503 C93.380888,48.2472318 92.7715448,47.92885 92.1296273,47.6903106 C91.5013344,47.4653385 90.8381986,47.3532809 90.1708696,47.3593168 C89.7824891,47.3158678 89.3903417,47.3968375 89.0509317,47.590559 C88.8736761,47.7400569 88.7736507,47.9617797 88.778882,48.1936025 C88.7765843,48.3137601 88.8131622,48.4314455 88.8831677,48.5291304 C88.9787518,48.6475064 89.1016813,48.7408705 89.2413665,48.8011801 C89.4603317,48.9028104 89.6860676,48.9891658 89.9169565,49.0596273 C90.2026087,49.1367081 90.5698758,49.2364596 91.0051553,49.3362112 C91.7568885,49.5120514 92.4960803,49.7377472 93.2178261,50.0118012 C93.7694192,50.2205841 94.2849814,50.5143168 94.7458385,50.8823602 C95.1406783,51.2056428 95.4517465,51.6193635 95.6526708,52.0884472 C95.8581312,52.6138375 95.9567828,53.1749183 95.9428571,53.738882" id="Path" fill="#231F20"></path>
                    <path d="M42.621118,72.9002484 C40.3268323,72.9002484 38.7806832,71.3540994 38.7806832,68.5837267 L38.7806832,63.2515528 L40.6804969,63.2515528 L40.6804969,68.5565217 C40.6804969,70.0754658 41.4150311,71.0412422 42.621118,71.0412422 C43.827205,71.0412422 44.5753416,70.1026708 44.5753416,68.5837267 L44.5753416,63.2515528 L46.4751553,63.2515528 L46.4751553,68.5565217 C46.4570186,71.3132919 45.0196894,72.9002484 42.621118,72.9002484 Z" id="Path" fill="#0097DA"></path>
                    <path d="M54.8361491,72.7506211 L51.3448447,67.5590062 C51.1136025,67.2053416 50.8007453,66.7292547 50.6828571,66.4844099 C50.6828571,66.8380745 50.6828571,68.030559 50.6828571,68.5610559 L50.6828571,72.7415528 L48.8329193,72.7415528 L48.8329193,63.2515528 L50.6465839,63.2515528 L54.0109317,68.2708696 C54.2421739,68.6245342 54.5550311,69.1006211 54.6774534,69.3454658 C54.6774534,68.9918012 54.6502484,67.7947826 54.6502484,67.2688199 L54.6502484,63.2515528 L56.5228571,63.2515528 L56.5228571,72.7506211 L54.8361491,72.7506211 Z" id="Path" fill="#0097DA"></path>
                    <polygon id="Path" fill="#0097DA" points="59.1118634 72.7506211 59.1118634 63.2515528 61.011677 63.2515528 61.011677 72.7506211"></polygon>
                    <path d="M68.1393789,72.7506211 L66.289441,72.7506211 L62.9114907,63.2515528 L65.0153416,63.2515528 L66.8290062,68.7469565 C67.0058385,69.2774534 67.1962733,69.9711801 67.2824224,70.3067081 C67.3640373,69.9575776 67.5408696,69.3046584 67.7358385,68.7469565 L69.4860248,63.2515528 L71.5626708,63.2515528 L68.1393789,72.7506211 Z" id="Path" fill="#0097DA"></path>
                    <polygon id="Path" fill="#0097DA" points="73.281118 72.7506211 73.281118 63.2515528 79.878323 63.2515528 79.878323 65.110559 75.1809317 65.110559 75.1809317 66.7519255 77.9014286 66.7519255 77.9014286 68.5973292 75.1809317 68.5973292 75.1809317 70.8916149 80.0823602 70.8916149 80.0823602 72.7506211"></polygon>
                    <path d="M87.6181366,72.7506211 L85.9223602,69.3318634 L84.0044099,69.3318634 L84.0044099,72.7506211 L82.1045963,72.7506211 L82.1045963,63.2515528 L86.5299379,63.2515528 C88.3209317,63.2515528 89.8036025,64.24 89.8036025,66.262236 C89.8036025,67.6904969 89.1914907,68.5837267 87.9899379,69.0598137 L89.8036025,72.7506211 L87.6181366,72.7506211 Z M86.4891304,65.0969565 L84.0044099,65.0969565 L84.0044099,67.5590062 L86.4891304,67.5590062 C87.3732919,67.5590062 87.8493789,67.1509317 87.8493789,66.3211801 C87.8493789,65.4914286 87.3324845,65.0969565 86.4891304,65.0969565 Z" id="Shape" fill="#0097DA"></path>
                    <path d="M95.0269565,72.9002484 C93.5893178,72.9622041 92.2118044,72.3191389 91.3361491,71.1772671 L92.6963975,69.9575776 C93.3017117,70.666704 94.1946633,71.0648672 95.1267081,71.0412422 C96.2557143,71.0412422 96.7862112,70.7283851 96.7862112,70.0119876 C96.7862112,69.3998758 96.4597516,69.1278261 94.6687578,68.7197516 C92.877764,68.311677 91.6943478,67.7539752 91.6943478,65.8813665 C91.6943478,64.1583851 93.2132919,63.1019255 95.0859006,63.1019255 C96.4024374,63.0725366 97.6667118,63.6169689 98.55,64.5936646 L97.1897516,65.9221739 C96.6420433,65.3046192 95.8569306,64.949999 95.0314907,64.9473292 C94.0158385,64.9473292 93.6712422,65.4007453 93.6712422,65.7997516 C93.6712422,66.3982609 94.0793168,66.5886957 95.5846584,66.9423602 C97.09,67.2960248 98.7585849,67.8083851 98.7585849,69.8759627 C98.7631056,71.680559 97.6204969,72.9002484 95.0269565,72.9002484 Z" id="Path" fill="#0097DA"></path>
                    <polygon id="Path" fill="#0097DA" points="100.907764 72.7506211 100.907764 63.2515528 102.807578 63.2515528 102.807578 72.7506211"></polygon>
                    <polygon id="Path" fill="#0097DA" points="109.404783 65.1241615 109.404783 72.7506211 107.504969 72.7506211 107.504969 65.1241615 104.784472 65.1241615 104.784472 63.2515528 112.143416 63.2515528 112.143416 65.1241615"></polygon>
                    <path d="M118.541118,68.9918012 L118.541118,72.7506211 L116.641304,72.7506211 L116.641304,69.0326087 L113.04118,63.2515528 L115.226646,63.2515528 L116.586894,65.5186335 C116.922422,66.0854037 117.439317,67.0239752 117.616149,67.3776398 C117.792981,67.0239752 118.296273,66.1126087 118.649938,65.5186335 L120.010186,63.2515528 L122.168447,63.2515528 L118.541118,68.9918012 Z" id="Path" fill="#0097DA"></path>
                    <path d="M28.3339673,59.2750932 C28.3321398,58.7428542 28.6513403,58.2620017 29.1425392,58.0570497 C29.6337381,57.8520977 30.200045,57.9634736 30.5770465,58.339175 C30.9540479,58.7148765 31.0673793,59.2807953 30.8641253,59.7726992 C30.6608712,60.2646031 30.1811241,60.5854658 29.648882,60.5854658 C28.924446,60.5854658 28.3364732,59.9995248 28.3339673,59.2750932" id="Path" fill="#D82C25"></path>
                    <path d="M-7.85578029e-06,30.1748447 C-7.85578029e-06,29.6426026 0.320862741,29.1628555 0.812766635,28.9596015 C1.30467053,28.7563474 1.87058938,28.8696788 2.24629082,29.2466802 C2.62199225,29.6236817 2.73336816,30.1899886 2.52841616,30.6811875 C2.32346417,31.1723864 1.84261161,31.4915869 1.31037267,31.4897594 C0.962053209,31.4897594 0.62806581,31.3510747 0.38219251,31.1043506 C0.13631921,30.8576265 -0.00120525766,30.5231621 -7.85578029e-06,30.1748447" id="Path" fill="#D82C25"></path>
                </g>
            </g>
        </g>
    </g>
</svg>