<svg xmlns="http://www.w3.org/2000/svg" xmlns:xlink="http://www.w3.org/1999/xlink" width="208" height="208" viewBox="0 0 208 208">
  <defs>
    <clipPath id="clip-path">
      <path id="Path" d="M208,98.5c0-31.5-20.48-57.9-48.045-65.006h0a87.933,87.933,0,0,1-18.219-6.668A109.892,109.892,0,0,1,127.2,17.569h0A75.632,75.632,0,0,0,78.913,0C35.369,0,0,37.574,0,83.932a85.916,85.916,0,0,0,28.572,64.611h0a46.53,46.53,0,0,0,5.723,4.617,77.456,77.456,0,0,0,15.3,8.688c12.464,5.792,30.833,11.755,56.125,13.807,44.444,3.665,76.359-23.051,76.359-23.051h0A68.223,68.223,0,0,0,208,98.5Z" fill="#e6e6e6"/>
    </clipPath>
  </defs>
  <g id="ilustrasi-no-course-progress" transform="translate(-1436 -326)">
    <rect id="Rectangle_2268" data-name="Rectangle 2268" width="208" height="208" transform="translate(1436 326)" fill="#fff" opacity="0"/>
    <g id="ilustrasi-no-course-progress-2" data-name="ilustrasi-no-course-progress" transform="translate(1644 510) rotate(180)">
      <path id="Path-2" data-name="Path" d="M208,98.5c0-31.5-20.48-57.9-48.045-65.006h0a87.933,87.933,0,0,1-18.219-6.668A109.892,109.892,0,0,1,127.2,17.569h0A75.632,75.632,0,0,0,78.913,0C35.369,0,0,37.574,0,83.932a85.916,85.916,0,0,0,28.572,64.611h0a46.53,46.53,0,0,0,5.723,4.617,77.456,77.456,0,0,0,15.3,8.688c12.464,5.792,30.833,11.755,56.125,13.807,44.444,3.665,76.359-23.051,76.359-23.051h0A68.223,68.223,0,0,0,208,98.5Z" fill="#e6e6e6"/>
      <g id="ilustrasi-no-course-progress-3" data-name="ilustrasi-no-course-progress" clip-path="url(#clip-path)">
        <path id="Path-3" data-name="Path" d="M0,0S26.828,84.567,81.651,73.486,46.074,10.5,47.241,72.9s104.979,67.07,173.216,35.576S366.845,75.818,424,139.389" transform="matrix(-0.985, 0.174, -0.174, -0.985, 95.882, 73.128)" fill="none" stroke="#fff" stroke-linecap="round" stroke-width="2" stroke-dasharray="8"/>
        <g id="Group_23" data-name="Group 23" transform="translate(65 49)">
          <path id="Path_Copy_4" data-name="Path Copy 4" d="M53.129,51.79c-7.324-1.737-11.285-2.932-13.011-6.34s-.332-7.3,2.611-14.228C46.391,22.57,49.721,16.673,41.29,0L0,20.877C8.431,37.551,15.157,38.369,24.285,40.549c7.324,1.737,11.3,2.921,13.011,6.329s.332,7.3-2.611,14.239c-3.662,8.641-6.981,14.549,1.438,31.211L77.414,71.45c-8.42-16.662-15.146-17.492-24.34-19.66" transform="translate(4.263 5.448)" fill="#fff"/>
          <path id="Path_Copy_5" data-name="Path Copy 5" d="M17.249,29.64l1.306.31c7.258,1.726,11.794,2.976,13.808,6.959.5.985,8.2,15.357,8.2,15.357s-7.026-14.715-7.523-15.7c-2.014-3.972-.332-8.386,2.578-15.246l.531-1.239C38.779,13.929,40.848,9.106,37.96,0L0,19.174c5.609,7.745,10.721,8.917,17.249,10.444" transform="translate(10.271 14.897)" fill="#cecece"/>
          <path id="Path_Copy_6" data-name="Path Copy 6" d="M23.721,4.3C15.467,3.7,12.325,0,12.325,0s1.626,4.569-4.249,12.856A44.255,44.255,0,0,1,0,21.309,52.885,52.885,0,0,0,4.138,32.373L43.271,12.591l-.542-1.106A51.867,51.867,0,0,0,37.2,2.733c-1.77.774-6.439,2.08-13.431,1.571" transform="translate(37.333 64.883)" fill="#cecece"/>
          <path id="Path_Copy_7" data-name="Path Copy 7" d="M30.934,6.948A47.143,47.143,0,0,0,33.5,0c-3.231,4.038-6.273,6.793-10.942,8.353C16.408,10.4,8.331,6.981,0,11.672,3.762,14.6,7.568,15.489,12.037,16.54l1.306.31c5.974,1.416,10.112,2.523,12.513,5.089a11.3,11.3,0,0,1,1.538,1.438,9.482,9.482,0,0,1-.177-1.5c-.94-3.585.664-7.689,3.186-13.653l.531-1.239" transform="translate(15.482 28.007)" fill="#bcbfc2"/>
          <path id="Path_Copy_8" data-name="Path Copy 8" d="M43.237,9.814,42.7,8.707A52.763,52.763,0,0,0,37.163,0c-1.737,5.875-5.875,5.4-11.219,6.76-6.329,1.6-9.714,8.176-15.489,11.119-3.828,1.936-8.464.653-10.367.586L0,18.532A52.885,52.885,0,0,0,4.138,29.6Z" transform="translate(37.366 67.638)" fill="#bcbfc2"/>
          <path id="Path_Copy_9" data-name="Path Copy 9" d="M21.846,18.483a1.261,1.261,0,0,1-1.693-.642s-.188-.4-.542-1.106a36.511,36.511,0,0,0-6.24-9.072c-3.828-3.729-10.4-4.923-11.9-5.1h-.31A1.284,1.284,0,1,1,1.412.006a29.22,29.22,0,0,1,4.9,1.051,21.829,21.829,0,0,1,8.851,4.791,38.945,38.945,0,0,1,6.749,9.769c.376.73.575,1.184.586,1.195a1.294,1.294,0,0,1-.586,1.682h-.055" transform="translate(53.756 58.327)" fill="#fff"/>
          <path id="Path_Copy_10" data-name="Path Copy 10" d="M.661.2a1.283,1.283,0,0,0-.5,1.748s.221.387.575,1.106A36.986,36.986,0,0,1,4.345,13.461c.73,5.289-2.213,11.285-2.954,12.6a2.324,2.324,0,0,1-.155.277h0A1.294,1.294,0,0,0,1.69,28.1a1.272,1.272,0,0,0,1.759-.454,29.651,29.651,0,0,0,2.069-4.569A21.862,21.862,0,0,0,6.89,13.118,38.723,38.723,0,0,0,3.028,1.833C2.652,1.1,2.409.726,2.409.66A1.283,1.283,0,0,0,.705.14h0" transform="translate(40.744 9.512)" fill="#fff"/>
          <path id="Path_Copy_11" data-name="Path Copy 11" d="M47.4,3.313a1.538,1.538,0,0,1-.752,2.025L3.5,27.144a1.549,1.549,0,0,1-2.091-.6L.136,24.024a1.549,1.549,0,0,1,.752-2.036L44.038.193a1.527,1.527,0,0,1,2.08.6Z" transform="translate(0 0)" fill="#4e5861"/>
          <path id="Path_Copy_12" data-name="Path Copy 12" d="M44.038.193.889,21.989a1.549,1.549,0,0,0-.752,2.036l.177.343c-.266-.52.155-1.272.94-1.671L44.4.9c.786-.4,1.637-.288,1.9.232L46.129.79a1.527,1.527,0,0,0-2.08-.6" transform="translate(0 0)" fill="#cecece"/>
          <path id="Path_Copy_13" data-name="Path Copy 13" d="M45.041,1.671,1.892,23.466c-.774.4-1.626.288-1.892-.232l.166.343a1.549,1.549,0,0,0,2.091.6L45.406,2.368A1.516,1.516,0,0,0,46.158.343L45.992,0c.266.52-.155,1.272-.94,1.671" transform="translate(1.243 2.97)" fill="#6d7278"/>
          <path id="Path_Copy_14" data-name="Path Copy 14" d="M44.169.24,1.02,22.036c-.786.4-1.206,1.106-.94,1.671l.929,1.837c.266.52,1.106.631,1.892.232L46.05,3.98c.786-.4,1.206-1.106.94-1.671L46.061.472c-.266-.52-1.106-.631-1.9-.232" transform="translate(0.223 0.661)" fill="#cecece"/>
          <path id="Path_Copy_15" data-name="Path Copy 15" d="M44.041.193.892,21.989A1.538,1.538,0,0,0,.14,24.024l.177.343c-.266-.531.144-1.283.929-1.671L44.4.89c.786-.4,1.637-.288,1.9.243L46.121.79a1.527,1.527,0,0,0-2.08-.6" transform="translate(38.609 76.252)" fill="#cecece"/>
          <path id="Path_Copy_16" data-name="Path Copy 16" d="M45.052,1.671,1.9,23.477c-.786.387-1.637.288-1.9-.243l.177.343a1.527,1.527,0,0,0,2.08.6l43.149-21.8A1.538,1.538,0,0,0,46.158.343L45.981,0c.277.531-.144,1.272-.929,1.671" transform="translate(39.811 79.211)" fill="#6d7278"/>
          <path id="Path_Copy_17" data-name="Path Copy 17" d="M44.159.239,1.01,22.046c-.786.387-1.195,1.106-.929,1.671L1,25.542c.266.531,1.106.631,1.9.243L46.051,3.979c.786-.4,1.195-1.106.929-1.671L46.062.483c-.266-.531-1.106-.642-1.9-.243" transform="translate(38.79 76.902)" fill="#cecece"/>
        </g>
      </g>
    </g>
  </g>
</svg>
