<svg id="ilustrasi-empty-1" xmlns="http://www.w3.org/2000/svg" xmlns:xlink="http://www.w3.org/1999/xlink" width="250" height="250" viewBox="0 0 250 250">
  <defs>
    <linearGradient id="linear-gradient" x1="0.5" x2="0.5" y2="1" gradientUnits="objectBoundingBox">
      <stop offset="0" stop-color="#f3931b"/>
      <stop offset="1" stop-color="#f7ca19"/>
    </linearGradient>
    <clipPath id="clip-path">
      <path id="Path" d="M-250,156.385V0L0,0s0,82.867,0,138.81a103.868,103.868,0,0,1-34.341,77.97,55.969,55.969,0,0,1-6.879,5.571,93,93,0,0,1-18.394,10.484c-14.981,6.99-37.059,14.186-67.458,16.662-53.418,4.423-91.778-27.817-91.778-27.817C-237.724,206.976-250,183.247-250,156.385Z" transform="translate(250 0.002)" fill="none"/>
    </clipPath>
  </defs>
  <g id="Group_1537" data-name="Group 1537">
    <rect id="Rectangle" width="250" height="250" fill="none"/>
    <path id="Path-2" data-name="Path" d="M-250,118.863c0-38.018,24.616-69.871,57.746-78.447h0a105.418,105.418,0,0,0,21.9-8.047A132.012,132.012,0,0,0-152.889,21.2h0A90.684,90.684,0,0,1-94.847,0C-42.511,0,0,45.343,0,101.286a103.868,103.868,0,0,1-34.341,77.97h0a55.966,55.966,0,0,1-6.879,5.571,93,93,0,0,1-18.394,10.484C-74.6,202.3-96.676,209.5-127.075,211.973c-53.418,4.423-91.778-27.817-91.778-27.817h0C-237.724,169.454-250,145.725-250,118.863Z" transform="translate(250 37.524)" fill="url(#linear-gradient)"/>
  </g>
  <g id="Group_10" data-name="Group 10" transform="translate(0)">
    <path id="Path-3" data-name="Path" d="M-250,156.385V0L0,0s0,82.867,0,138.81a103.868,103.868,0,0,1-34.341,77.97,55.969,55.969,0,0,1-6.879,5.571,93,93,0,0,1-18.394,10.484c-14.981,6.99-37.059,14.186-67.458,16.662-53.418,4.423-91.778-27.817-91.778-27.817C-237.724,206.976-250,183.247-250,156.385Z" transform="translate(250 0.002)" fill="none"/>
    <g id="Group_10-2" data-name="Group 10" clip-path="url(#clip-path)">
      <g id="Asset_13" data-name="Asset 13" transform="translate(19.006)">
        <path id="Path-4" data-name="Path" d="M0,14.22A97.047,97.047,0,0,0,7.554,0" transform="translate(187.863 152.987)" fill="none" stroke="#fff" stroke-linecap="round" stroke-width="2"/>
        <path id="Path-5" data-name="Path" d="M.044,0A34.866,34.866,0,0,1,.9,5.579a18.717,18.717,0,0,1-.9,6.03l12.317.322L11.545.088Z" transform="translate(29.001 219.809)" fill="#ffd3a4"/>
        <path id="Path-6" data-name="Path" d="M0,13.143A17.035,17.035,0,0,0,7.289,9.024c3.154-3.149,5.149-5.857,5.729-7.724S16.171.012,17.459.4s.837,1.03.837,2.446S14.112,11.47,9.8,14.238A21.352,21.352,0,0,1,1.11,17.391Z" transform="translate(13.538 226.777)" fill="#d73930"/>
        <path id="Path-7" data-name="Path" d="M.644,17.527,0,14.18a23.135,23.135,0,0,0,7.917-3.09c3.411-2.317,7.531-8.625,8.11-9.977S18.344.02,19.825.02H27.1a1.654,1.654,0,0,1,1.867,1.867,25.113,25.113,0,0,0,.837,5.6,53.463,53.463,0,0,1,1.117,9.848s-5.945.644-12.768.644S.644,17.527.644,17.527" transform="translate(14.519 228.567)" fill="#9a3333"/>
        <rect id="Rectangle-2" data-name="Rectangle" width="43.615" height="0.857" transform="translate(1.823 248.991)" fill="#fff"/>
        <rect id="Rectangle-3" data-name="Rectangle" width="29.781" height="3.09" transform="translate(15.657 245.901)" fill="#c4c6c6"/>
        <path id="Path-8" data-name="Path" d="M0,5.209A2.29,2.29,0,0,1,1.755,2.956C3.621,2.376,11.716,0,11.716,0s1.625,1.6,1.625,5.209Z" transform="translate(1.822 239.92)" fill="#fff"/>
        <circle id="Oval" cx="0.757" cy="0.757" r="0.757" transform="translate(31.285 230.067)" fill="none" stroke="#592220" stroke-width="1"/>
        <circle id="Oval-2" data-name="Oval" cx="0.757" cy="0.757" r="0.757" transform="translate(17.679 242.844) rotate(-5.65)" fill="none" stroke="#592220" stroke-width="2"/>
        <circle id="Oval-3" data-name="Oval" cx="0.757" cy="0.757" r="0.757" transform="translate(22.121 240.674) rotate(-5.65)" fill="none" stroke="#592220" stroke-width="2"/>
        <circle id="Oval-4" data-name="Oval" cx="0.757" cy="0.757" r="0.757" transform="translate(25.915 237.294) rotate(-5.65)" fill="none" stroke="#592220" stroke-width="2"/>
        <circle id="Oval-5" data-name="Oval" cx="0.757" cy="0.757" r="0.757" transform="translate(29.005 233.917) rotate(-5.65)" fill="none" stroke="#592220" stroke-width="2"/>
        <path id="Path-9" data-name="Path" d="M1.82,4.892A11.778,11.778,0,0,0,0,0" transform="translate(16.717 238.628)" fill="none" stroke="#fff" stroke-linecap="round" stroke-width="2"/>
        <path id="Path-10" data-name="Path" d="M0,0A8.465,8.465,0,0,1,3.236,4.652" transform="translate(19.732 236.697)" fill="none" stroke="#fff" stroke-linecap="round" stroke-width="2"/>
        <path id="Path-11" data-name="Path" d="M0,0A9.156,9.156,0,0,1,4.521,3.653" transform="translate(22.243 234.315)" fill="none" stroke="#fff" stroke-linecap="round" stroke-width="2"/>
        <path id="Path-12" data-name="Path" d="M0,0S4.856,1.645,5.487,3.043" transform="translate(24.367 231.547)" fill="none" stroke="#fff" stroke-linecap="round" stroke-width="2"/>
        <path id="Path-13" data-name="Path" d="M0,0,6.323,1.143" transform="translate(25.718 229.681)" fill="none" stroke="#fff" stroke-linecap="round" stroke-width="1"/>
        <path id="Path-14" data-name="Path" d="M10.673,1.564S8.292-.688,3.528.213-.527,5.362,1.855,6.006,6.875,1.758,10.673,1.564Z" transform="translate(15.431 228.309)" fill="none" stroke="#fff" stroke-linecap="round" stroke-width="2"/>
        <path id="Path-15" data-name="Path" d="M.733,0S-1.584,6.437,2.021,7.981s4.634,5.664,4.634,5.664,9.784-6.625,9.784.175-8.947,0-8.947,0,1.251,1.074.893,3.756,3.221,8.947,7.7,6.437" transform="translate(19.771 216.164)" fill="none" stroke="#fff" stroke-linecap="round" stroke-width="1"/>
        <path id="Path-16" data-name="Path" d="M0,.129H29.264" transform="translate(16.344 247.487)" fill="none" stroke="#592220" stroke-linecap="round" stroke-width="2"/>
        <path id="Path-17" data-name="Path" d="M15.237,1.264A1.414,1.414,0,0,0,13.97,0H.631A3.187,3.187,0,0,0,0,1.972a2.8,2.8,0,0,0,.628,1.89H15.237Z" transform="translate(1.192 245.131)" fill="#fff"/>
        <path id="Path-18" data-name="Path" d="M0,0,.183,1.887l10.96-.62L11.061,0Z" transform="translate(29.719 223.502)" fill="#f2ac7c"/>
        <path id="Path-19" data-name="Path" d="M10.837,3.079S8.777,7.2,8.777,9s.257,4.377.257,4.377S1.053,51.74.538,55.345-.234,63.326.281,65.9s9.784,38.877,9.784,38.877H22.423s-.515-8.754-1.03-15.963S19.812,68.97,18.267,65.623a3.347,3.347,0,0,0-.291-2.93l14.74-43.641L36.836,0Z" transform="translate(18.035 113.574)" fill="#028ed5"/>
        <path id="Path-20" data-name="Path" d="M28.432,0l-26,3.09S.368,7.209.368,9.011s.257,4.377.257,4.377L0,16.406c1.771-1.408,9.748-3.4,14.014-.7,3.463,2.186,7.209,7.209,7.675,10.9l2.624-7.551Z" transform="translate(26.444 113.563)" fill="#006293"/>
        <path id="Path-21" data-name="Path" d="M12.873,74.537a61.549,61.549,0,0,0,16.993-1.159L29.48,13,21.112,0,0,5.536Z" transform="translate(23.852 41.344)" fill="#d73930"/>
        <path id="Path-22" data-name="Path" d="M0,6.511.229,6.5l.685-.054c.6-.051,1.462-.142,2.518-.294a51.192,51.192,0,0,0,7.981-1.777A44.894,44.894,0,0,0,20.736.113L20.919,0l1.249,1.949A46.581,46.581,0,0,1,12.106,6.583,53.038,53.038,0,0,1,.1,8.823Z" transform="translate(27.016 46.802)" fill="#9a3333"/>
        <path id="Path-23" data-name="Path" d="M0,6.04s.353-.021.989-.08,1.545-.152,2.616-.3a48.381,48.381,0,0,0,7.626-1.635A63.223,63.223,0,0,0,19.9.42c.515-.257.816-.42.819-.42L21.81,2.044a66.568,66.568,0,0,1-9.887,4.2A56.117,56.117,0,0,1,.134,8.357Z" transform="translate(28.077 53.666)" fill="#9a3333"/>
        <path id="Path-24" data-name="Path" d="M0,5.566s.389-.026,1.061-.09,1.619-.162,2.714-.309a46.179,46.179,0,0,0,7.253-1.493C14.076,2.724,17.9,1.128,19.6.394c.569-.245.9-.391.9-.394l.945,2.116c-.023,0-5.443,2.43-9.722,3.769A59.781,59.781,0,0,1,.147,7.878h0Z" transform="translate(29.137 60.538)" fill="#9a3333"/>
        <path id="Path-25" data-name="Path" d="M0,5.072s.422-.033,1.13-.1,1.7-.175,2.814-.319a44.581,44.581,0,0,0,6.9-1.352c1.756-.548,4.119-1.377,6.045-2.06S20.278,0,20.281,0l.811,2.17s-5.922,2.214-9.56,3.347A46.73,46.73,0,0,1,4.243,6.952c-2.294.3-4.063.43-4.063.43Z" transform="translate(30.201 67.428)" fill="#9a3333"/>
        <path id="Path-26" data-name="Path" d="M0,4.585s.453-.039,1.2-.113,1.777-.185,2.909-.33a44.269,44.269,0,0,0,6.535-1.2L20.046,0l.7,2.209-9.405,2.94A45.136,45.136,0,0,1,4.4,6.437c-2.327.291-4.2.451-4.207.451Z" transform="translate(31.267 74.31)" fill="#9a3333"/>
        <path id="Path-27" data-name="Path" d="M0,4.086s1.97-.178,4.277-.461a45.815,45.815,0,0,0,6.179-1.063C12.907,1.789,19.807,0,19.817,0L20.4,2.243s-1.728.448-3.754.991-4.351,1.179-5.5,1.545A45.965,45.965,0,0,1,4.567,5.929C2.2,6.223.224,6.4.216,6.4h0Z" transform="translate(32.33 81.202)" fill="#9a3333"/>
        <path id="Path-28" data-name="Path" d="M0,3.584S1.177,3.471,2.757,3.3s3.566-.412,5.149-.657a19.851,19.851,0,0,0,2.335-.458c.994-.309,3.272-.837,5.371-1.313S19.557,0,19.56,0l.487,2.266s-1.851.4-3.926.865-4.392,1.012-5.185,1.262a21.128,21.128,0,0,1-2.678.538c-1.1.167-2.356.33-3.545.474-2.379.283-4.49.484-4.5.487h0Z" transform="translate(33.396 88.1)" fill="#9a3333"/>
        <path id="Path-29" data-name="Path" d="M0,3.077s1.7-.17,3.723-.4S8.1,2.163,9.356,1.941a6.486,6.486,0,0,0,.69-.144c.417-.129,1.115-.273,2.06-.463S14.132.94,15.2.742C17.333.348,19.315,0,19.315,0l.4,2.281s-4.457.772-7.163,1.326c-.891.175-1.632.342-1.8.4a8.584,8.584,0,0,1-.984.216c-.394.07-.865.139-1.388.214-1.043.147-2.291.3-3.494.44C2.474,5.157.25,5.394.25,5.394h0Z" transform="translate(34.464 95)" fill="#9a3333"/>
        <path id="Path-30" data-name="Path" d="M0,2.57s1.738-.183,3.772-.409S8.149,1.666,9.289,1.5c.288-.039.515-.08.574-.093.121-.036.193-.049.3-.072l.389-.07c.3-.054.682-.116,1.123-.185.881-.136,1.993-.3,3.09-.463C16.952.3,19.06,0,19.063,0l.322,2.294s-1.56.219-3.386.484-3.919.574-4.949.752c-.275.046-.494.09-.515.1h0a3.44,3.44,0,0,1-.345.08l-.44.07c-.335.049-.772.106-1.256.167-.986.126-2.227.27-3.445.407-2.438.273-4.786.515-4.786.515h0Z" transform="translate(35.53 101.903)" fill="#9a3333"/>
        <rect id="Rectangle-4" data-name="Rectangle" width="18.908" height="2.317" transform="matrix(0.994, -0.109, 0.109, 0.994, 36.595, 110.87)" fill="#9a3333"/>
        <path id="Path-31" data-name="Path" d="M8.368.7A5.336,5.336,0,0,0,3.133.7,6.751,6.751,0,0,0,0,5.854C0,6.542.386,9.5.386,9.374S7.6,8.988,7.6,8.988Z" transform="translate(101.135 37.848)" fill="#006293"/>
        <path id="Path-32" data-name="Path" d="M4.584,5.793s6.565-1.416,8.11-1.545,2.188-1.03,3.733-.772a8.135,8.135,0,0,0,4.506-.386C23.121,2.446,42.817,0,47.066,0s5.664.9,7.467,2.7,8.754,11.586,8.754,11.586a5.922,5.922,0,0,0-7.08.772A6.717,6.717,0,0,0,54.275,22.4l-8.3-7.981a2.623,2.623,0,0,1-2.9-.515C39.213,15.963,1.88,28.965,1.88,28.965S-.952,17.122.336,12.1,4.584,5.793,4.584,5.793" transform="translate(47.589 24.866)" fill="#13a8e2"/>
        <path id="Path-33" data-name="Path" d="M0,0S3.09,9.526,4.377,16.092" transform="translate(60.669 35.165)" fill="none" stroke="#028ed5" stroke-linecap="round" stroke-width="1"/>
        <path id="Path-34" data-name="Path" d="M.193,10.17.064,0" transform="translate(64.081 37.611)" fill="none" stroke="#028ed5" stroke-linecap="round" stroke-width="1"/>
        <path id="Path-35" data-name="Path" d="M2.719,11.972A7.667,7.667,0,0,1,.4,8.625C-.371,6.437-.242,1.287,2.719,0" transform="translate(90.907 27.312)" fill="none" stroke="#028ed5" stroke-linecap="round" stroke-width="1"/>
        <path id="Path-36" data-name="Path" d="M.293,8.381s-1.529-4.4,2.4-6.952A8.151,8.151,0,0,1,8.789.142" transform="translate(99.898 36.696)" fill="none" stroke="#028ed5" stroke-linecap="round" stroke-width="1"/>
        <path id="Path-37" data-name="Path" d="M.86,15.018a14.391,14.391,0,0,0,12.013,1.287c6.952-2.232,8.411-6.952,8.411-6.952L15.536,0,0,4.462Z" transform="translate(24.238 32.976)" fill="#ffd3a4"/>
        <path id="Path-38" data-name="Path" d="M0,.789S3.432.189,4.634.016a6.993,6.993,0,0,1,2.66.6" transform="translate(25.44 46.003)" fill="none" stroke="#f2ac7c" stroke-linecap="round" stroke-width="1"/>
        <path id="Path-39" data-name="Path" d="M5.811,0S2.752,1.671,1.7,2.286A7.018,7.018,0,0,0,0,4.416" transform="translate(38.473 40.484)" fill="none" stroke="#f2ac7c" stroke-linecap="round" stroke-width="1"/>
        <path id="Path-40" data-name="Path" d="M6.473,5.579c-2.06,3.6-4.2,18.71-4.2,18.71a3.338,3.338,0,0,0-.945,1.457c-.173.772.515,1.287.6,2.49S-1.164,42.654.466,46.859s13.9-.685,13.9-.685l2.66-9.7s.945-.772.6-1.63,1.545-6.179,1.545-6.179l3.517,8.581s1.717,7.382,1.46,9.269-1.46,11.928-.515,12.958A17.922,17.922,0,0,0,25.87,61.45s-.088,4.549.515,5.322S35.224,69,36.941,69s2.917-.257,2.745-7.037a308.834,308.834,0,0,0-3.175-32.441c-1.115-6.437-2.4-13.646-6.094-18.8S11.452,0,11.452,0A18.236,18.236,0,0,0,6.473,5.579" transform="translate(0 50.139)" fill="#13a8e2"/>
        <path id="Path-41" data-name="Path" d="M0,0S1.115,6.437.257,11.416" transform="translate(29.217 60.953)" fill="none" stroke="#fff" stroke-linecap="round" stroke-width="1"/>
        <path id="Path-42" data-name="Path" d="M17.112,5.525a6.533,6.533,0,0,0-.566,6.115C17.637,14.809,21.061,22.83,22,25.832s1.632,5.837,1.632,5.837-1.545-3.262-6.609-5.149S7.673,23.772,3.981,20.77C1.064,18.393-.61,16.522.207,15.705s4.8-3.947,5.492-5.492A18.386,18.386,0,0,1,7.5,6.522c.515-.515,2.747-.772,2.747-.772A15.448,15.448,0,0,1,16.6,0Z" transform="translate(9.443 34.349)" fill="#028ed5"/>
        <path id="Path-43" data-name="Path" d="M.628,5.6s4.24,2.7,5.636,9.655c1.133,5.641,6.694,16.39,6.694,16.39s-.43-9.439,1.03-13.473,2.747-7.551,1.8-11.413S14.045.387,13.043.145C10.556-.455,9.954,1,8.754,1s-3.728.664-5.579.345A10.1,10.1,0,0,0,0,1.26Z" transform="translate(38.744 30.084)" fill="#028ed5"/>
        <path id="Path-44" data-name="Path" d="M0,3.689,1.908,13.71S4.74,16.434,10.147,14.8s5.9-5.108,5.9-5.108L13.731,0Z" transform="translate(24.84 30.144)" fill="#ffd3a4"/>
        <path id="Path-45" data-name="Path" d="M13.731,0,0,3.689.832,8.066a7.114,7.114,0,0,0,6.12,2.158c3.141-.533,6.146-4.289,7.634-6.63Z" transform="translate(24.84 30.144)" fill="#f2ac7c"/>
        <path id="Path-46" data-name="Path" d="M2.331.431A1.4,1.4,0,0,0,.243.563C-.638,1.747.824,6.536,5.531,6.837Z" transform="translate(14.662 24.218)" fill="#f2ac7c"/>
        <path id="Path-47" data-name="Path" d="M0,.185S.834-.557,2.588.931" transform="translate(15.386 25.701)" fill="none" stroke="#9a3333" stroke-linecap="round" stroke-width="1.5"/>
        <path id="Path-48" data-name="Path" d="M.681,0A1.873,1.873,0,0,0,.125,2.2" transform="translate(16.145 25.886)" fill="none" stroke="#9a3333" stroke-linecap="round" stroke-width="1.5"/>
        <path id="Path-49" data-name="Path" d="M0,1.189S.368-.369,1.774.082s3,5.2-.657,8.193Z" transform="translate(39.683 16.185)" fill="#f2ac7c"/>
        <path id="Path-50" data-name="Path" d="M1.674,0S.561-.117,0,2.115" transform="translate(40.036 17.447)" fill="none" stroke="#9a3333" stroke-linecap="round" stroke-width="1.5"/>
        <path id="Path-51" data-name="Path" d="M0,0A1.851,1.851,0,0,1,1.728,1.463" transform="translate(40.53 18.28)" fill="none" stroke="#9a3333" stroke-linecap="round" stroke-width="1.5"/>
        <path id="Path-52" data-name="Path" d="M23.658,6.9c-2.528-6.488-9.192-8-14.83-6.2S-1.342,7.615.365,14.371c1.581,6.251,6.179,14.645,7.7,16.861s5.26,2.909,6.843,3.213a7.544,7.544,0,0,0,4.606-.394A7.56,7.56,0,0,0,23.493,31.7c1.112-1.166,3.751-3.906,3.7-6.594S26.021,12.908,23.658,6.9" transform="translate(13.886 2.777)" fill="#ffd3a4"/>
        <path id="Path-53" data-name="Path" d="M2.5,1.28A4.758,4.758,0,0,1,0,1.493a3.023,3.023,0,0,0,2.709.44A3.023,3.023,0,0,0,4.658,0,4.825,4.825,0,0,1,2.5,1.287" transform="translate(27.564 25.129)" fill="#9a3333"/>
        <path id="Path-54" data-name="Path" d="M1.719.611A.881.881,0,1,1,.612.042.881.881,0,0,1,1.719.611" transform="translate(21.312 20.865)" fill="#231f20"/>
        <path id="Path-55" data-name="Path" d="M.015,3.772A3.551,3.551,0,0,1,2.659,0" transform="translate(19.055 17.122)" fill="none" stroke="#592220" stroke-linecap="round" stroke-width="1"/>
        <path id="Path-56" data-name="Path" d="M.042,1.149A.881.881,0,1,0,.611.042.881.881,0,0,0,.042,1.149" transform="translate(32.875 17.156)" fill="#231f20"/>
        <path id="Path-57" data-name="Path" d="M4.488.924S3.025-.654,0,.314" transform="translate(30.86 13.133)" fill="none" stroke="#592220" stroke-linecap="round" stroke-width="1"/>
        <path id="Path-58" data-name="Path" d="M19.185,6.627S4.443,10.185,5.5,19.181c.494,4.222-.327,4.446.077,5.466,0,0-1.393-.566-1.74-.219A66.031,66.031,0,0,1,.4,15.834C-.8,12.1.637,6.591,5.941,2.768,10.334-.4,16-.659,18.155,1.027c2.809-1.779,6.694,1.1,8.6,4.477,1.952,3.481,2.433,10.752,2.433,10.752a2.6,2.6,0,0,0-.911,1.128,22.39,22.39,0,0,1-3.347-5.551A11.277,11.277,0,0,1,19.183,6.64" transform="translate(11.407 0.002)" fill="#592220"/>
        <path id="Path-59" data-name="Path" d="M.248,0C-.37-.015.284,1.663.923,1.323S.833.013.248,0" transform="translate(30.249 22.974)" fill="#fff"/>
        <path id="Path-60" data-name="Path" d="M0,0,1.645,6.071,1.367.16,0,0Z" transform="translate(38.893 16.311)" fill="#592220"/>
        <path id="Path-61" data-name="Path" d="M0,2.006c.051.157,2.8,4.557,2.8,4.557L.705,0Z" transform="translate(16.22 22.255)" fill="#592220"/>
        <path id="Path-62" data-name="Path" d="M0,2.666S.4.406,1.764.066A3.887,3.887,0,0,1,4.573.81,10.878,10.878,0,0,0,0,2.666" transform="translate(29.369 28.891)" fill="#fff"/>
        <path id="Path-63" data-name="Path" d="M16,0s1.9,3.986-3.066,7.9a6.6,6.6,0,0,0,.257-3.6,10.141,10.141,0,0,1-4.246,5.814A9.653,9.653,0,0,0,10.177,5.3c-1.184,3.486-2.5,5.42-5.981,7.322a7.289,7.289,0,0,0,.471-2.356C3.761,11.493,3.292,13.1,1.482,15.76a11.973,11.973,0,0,1-.064-3.728A10.987,10.987,0,0,0,.615,16C-.5,12.688-.379,9.145,3.369,6.738S16,0,16,0" transform="translate(14.54 5.85)" fill="#592220"/>
        <path id="Path-64" data-name="Path" d="M1.045,10.208s1.545.471,2.737-1.921c2.449.929,4.959-1.7,5.811-2.93,1.843,1.174,3.823-1.287,4.331-2.273,2.634,0,3.715-2.461,3.347-2.979s-1.424,1.017-3.419,1.524a3.827,3.827,0,0,1-2.665-.116A4.431,4.431,0,0,1,8.725,4.132c-1.928.811-2.9.317-3.332.7S4.256,6.918,3.107,7.4A1.509,1.509,0,0,1,1.079,6.179C1,5.54-1.3,10.041,1.055,10.224" transform="translate(12.629 3.927)" fill="#9a3333"/>
        <path id="Path-65" data-name="Path" d="M.016.991C-.2.51,1.87-.425,2.04.219S.256,1.506.016.991" transform="translate(31.235 31.341)" fill="#f2ac7c"/>
        <path id="Path-66" data-name="Path" d="M10.726,22.541s-2.49-6.236-4.377-10.183S0,0,0,0" transform="translate(11.197 62.938)" fill="none" stroke="#028ed5" stroke-linecap="round" stroke-width="1"/>
        <path id="Path-67" data-name="Path" d="M5.8,5.507,0,0" transform="translate(12.309 70.994)" fill="none" stroke="#028ed5" stroke-linecap="round" stroke-width="1"/>
        <path id="Path-68" data-name="Path" d="M0,3.347,3.347,0" transform="translate(1.753 71.596)" fill="none" stroke="#028ed5" stroke-linecap="round" stroke-width="1"/>
        <path id="Path-69" data-name="Path" d="M0,0A110.679,110.679,0,0,0,12.7,1.372" transform="translate(25.87 111.589)" fill="none" stroke="#028ed5" stroke-linecap="round" stroke-width="1"/>
        <path id="Path-70" data-name="Path" d="M0,0S3.476,12.745,3.95,17.85s5.319,31.9,2.317,38.363" transform="translate(31.704 62.842)" fill="none" stroke="#028ed5" stroke-linecap="round" stroke-width="1"/>
        <path id="Path-71" data-name="Path" d="M9.822,16.308S2.528,11.329.811,8.584.638,0,.638,0" transform="translate(18.965 40.355)" fill="none" stroke="#006293" stroke-linecap="round" stroke-width="1"/>
        <path id="Path-72" data-name="Path" d="M0,0S3.991,2.23,5.021,5.664a17.225,17.225,0,0,1,.345,7.122" transform="translate(42.904 31.689)" fill="none" stroke="#006293" stroke-linecap="round" stroke-width="1"/>
        <path id="Path-73" data-name="Path" d="M11.354,1.3A24.162,24.162,0,0,0,4.443.008C1.7.137-.4,1.767.066,2.2s1.3.015,2.747-.257a49.584,49.584,0,0,1,8.54-.644" transform="translate(5.248 84.16)" fill="#028ed5"/>
        <path id="Path-74" data-name="Path" d="M14.418,0,0,44.864a7.23,7.23,0,0,1,1.159,4.055A5.922,5.922,0,0,1,.35,51.151L4.377,89.6" transform="translate(32.477 129.011)" fill="none" stroke="#006293" stroke-linecap="round" stroke-width="1" stroke-dasharray="6"/>
        <path id="Path-75" data-name="Path" d="M0,0,6.179,4.055" transform="translate(29.773 172.137)" fill="none" stroke="#006293" stroke-linecap="round" stroke-width="1"/>
        <rect id="Rectangle-5" data-name="Rectangle" width="14.761" height="6.694" transform="translate(26.9 216.807)" fill="#13a8e2"/>
        <path id="Path-76" data-name="Path" d="M103.244,0H0V181.741H130.536V27.291Z" transform="translate(49.727 46.107)" fill="#fff"/>
        <path id="Path-77" data-name="Path" d="M0,27.291H27.291L0,0V27.291Z" transform="translate(152.971 46.107)" fill="#cecece"/>
        <path id="Path-78" data-name="Path" d="M14.619,4.076s-.445-1.818-1.931-2.145C9.567,1.241,7.824-.02,6.854,0A14.676,14.676,0,0,0,4.235.515c-.929.242-1.617,1.591-1.8,2.016C1.694,4.233.584,6.025.515,7.119S0,11.089,0,12.593s2.245.729,2.6.082A37.078,37.078,0,0,0,3.638,8.056l1.45-2.624S4.781,12.722,5,14.539s2.2.682,2.549-.054c.515.855,1.828.327,2.134-.257A32.913,32.913,0,0,0,10.863,9.56c.206-1.141.865-4.343.865-4.343A11.928,11.928,0,0,1,12.6,7.747c.013.636-.672,2.747-.242,3.785s1.831.417,1.864-.175,1.233-4.258,1.13-4.8-.726-2.464-.726-2.464" transform="translate(101.964 37.953)" fill="#ffd3a4"/>
        <path id="Path-79" data-name="Path" d="M0,9.755.711,0" transform="translate(109.506 42.683)" fill="none" stroke="#9a3333" stroke-linecap="round" stroke-width="1"/>
        <path id="Path-80" data-name="Path" d="M1.076,0S3.993,4.719,3.048,9.784C.046,8.409-.984,3.689,1.076,0" transform="translate(40.243 84.47)" fill="#006293"/>
        <path id="Path-81" data-name="Path" d="M11.506,4.8,14.68,2.915a37.409,37.409,0,0,0,4.977-.945c.644-.353,1.1-1.988-.4-1.97s-4.377.469-5.474.541S10.754,1.851,9.057,2.6,5.327,7.292,3.01,10.767a12.146,12.146,0,0,1-2.575.772s-1.717,4.676,1.674,7.423c.657.049,1.843-.515,4.119-1.331a23.165,23.165,0,0,0,4.763-2.616s1.707.257,2.25.355,4.21-1.107,4.8-1.143a.734.734,0,0,0,.157-1.444c-1.038-.43-3.226.183-3.862.173a8.92,8.92,0,0,1-2.443-1.2s3.2-.672,4.341-.878A32.834,32.834,0,0,0,20.9,9.681c.6-.309,1.123-1.617.257-2.134C21.895,7.2,23.022,5.214,21.2,5S11.5,4.8,11.5,4.8" transform="translate(39.987 74.217)" fill="#ffd3a4"/>
        <path id="Path-82" data-name="Path" d="M9.753,0,0,.734" transform="translate(51.395 81.764)" fill="none" stroke="#9a3333" stroke-linecap="round" stroke-width="1"/>
        <path id="Path-83" data-name="Path" d="M10.973,11.547A8.046,8.046,0,0,1,9.4,10.288c-.559-.556-.342-1.5-.6-2.06s-.644-.556-.86-1.329.3-1.287-.17-2.147A3.13,3.13,0,0,1,7.9,2.266c.216-.814-.173-1.159-.173-1.632A1.764,1.764,0,0,1,7.919,0C6.472,1.545,4.83,4.555,3.01,7.286a12.146,12.146,0,0,1-2.575.772s-1.717,4.676,1.674,7.423c.657.049,1.846-.515,4.119-1.331a22.547,22.547,0,0,0,4.745-2.6" transform="translate(39.982 77.698)" fill="#f2ac7c"/>
        <path id="Path-84" data-name="Path" d="M41.275.262a8.556,8.556,0,0,0-.515,4.719c.685,4.462,2.487,5.064,2.487,5.064L37.928,11.76s-1.975,2.232-3.862,2.317S13.638,18.627,6.172,17.854c-2.06-.211-5.319.772-6.092-6.179s4.2-9.011,8.151-9.869,18.625-.43,20.855-.515S32.606-.083,33.978,0A4.132,4.132,0,0,1,36.3.947Z" transform="translate(0.044 84.208)" fill="#13a8e2"/>
        <path id="Path-85" data-name="Path" d="M19.356,0l-5.2,1.676S12.186,3.908,10.3,3.993c-.86.041-5.165.986-10.3,1.931" transform="translate(23.811 94.292)" fill="none" stroke="#028ed5" stroke-linecap="round" stroke-width="1"/>
        <path id="Path-86" data-name="Path" d="M.286,0a14.551,14.551,0,0,0,1.46,9.784" transform="translate(35.84 85.798)" fill="none" stroke="#028ed5" stroke-linecap="round" stroke-width="1"/>
        <path id="Path-87" data-name="Path" d="M11.945,1.274S5.508-.511,2.846.262-.828,2.432.75,2.432a10.631,10.631,0,0,0,2.266-.626c3.95-.86,18.625-.43,20.855-.515S27.39-.083,28.763,0A4.132,4.132,0,0,1,31.08.947L35.972.272" transform="translate(5.259 84.205)" fill="none" stroke="#028ed5" stroke-linecap="round" stroke-width="1"/>
        <path id="Path-88" data-name="Path" d="M10.021,77.912c-2.693.337-8.52-10.3-8.754-14.727-.234-4.5,2.4-2.549,2.4-2.549S-.666,51.018.088,45.245s4.24-1.092,4.24-1.092-3.715-10-2.245-14.73,4-1.712,4-1.712S4.1,18.348,6.5,14.359s4.634.44,4.634.44S16.983-1.936,23.842.186c5.633,1.738-3.677,18.069-3.677,18.069s4.555-.857,4.84,2.757S18.917,34.6,18.917,34.6s2.992-2.616,4.143-.257c1.777,3.638-5.6,14.107-5.6,14.107s2.482-1.426,2.927,1.635-6.694,12.261-6.694,12.261a1.939,1.939,0,0,1,2.536,1.88c.35,2.554-2.745,13.267-6.2,13.7" transform="translate(169.582 119.08)" fill="#76b743"/>
        <path id="Path-89" data-name="Path" d="M4.072,79.022S-9.663,33.139,13.318,0" transform="translate(176.927 123.347)" fill="none" stroke="#619930" stroke-linecap="round" stroke-width="1"/>
        <path id="Path-90" data-name="Path" d="M24.765,78.673c2.716,0,6.89-14.014,6.591-18.445-.3-4.49-2.68-2.243-2.68-2.243s3.167-10.067,1.735-15.705-4.346-.59-4.346-.59,2.5-10.371.476-14.892-4.176-1.226-4.176-1.226.85-9.526-2-13.205-4.537.986-4.537.986S8.025-2.56,1.467.357c-5.389,2.4,5.8,17.508,5.8,17.508s-4.634-.309-4.477,3.314,7.665,12.768,7.665,12.768-3.283-2.24-4.145.239c-1.331,3.826,7.24,13.342,7.24,13.342S10.914,46.4,10.836,49.5s8.1,11.377,8.1,11.377a1.939,1.939,0,0,0-2.294,2.17c-.041,2.58,4.65,15.62,8.131,15.639" transform="translate(151.293 133.5)" fill="#a4c43a"/>
        <path id="Path-91" data-name="Path" d="M19.683,82.191S26.761,30.167,0,0" transform="translate(156.375 137.533)" fill="none" stroke="#76b743" stroke-linecap="round" stroke-width="1"/>
        <path id="Path-92" data-name="Path" d="M5.94,74.328C3.232,74.161-.53,62.634.062,58.236c.6-4.464,2.832-2.06,2.832-2.06S.407,45.919,2.209,40.384s4.377-.3,4.377-.3S4.784,29.57,7.1,25.193s4.246-.942,4.246-.942-.214-9.57,2.876-13.046,4.464,1.287,4.464,1.287S27.526-2.868,33.878.476c5.216,2.75-6.952,17.08-6.952,17.08s4.634,0,4.248,3.6-8.5,12.23-8.5,12.23,3.424-2.019,4.119.515c1.074,3.9-8.108,12.83-8.108,12.83s2.7-.945,2.575,2.145-8.841,10.814-8.841,10.814a1.941,1.941,0,0,1,2.147,2.317c-.129,2.575-5.149,12.531-8.628,12.317" transform="translate(172.649 143.123)" fill="#619930"/>
        <path id="Path-93" data-name="Path" d="M.337,75.953S-4.683,28.321,24.024,0" transform="translate(178.638 147.034)" fill="none" stroke="#76b743" stroke-linecap="round" stroke-width="1"/>
        <path id="Path-94" data-name="Path" d="M3.368,43.94c-2.7-.9-4.119-8.5-2.961-13.388,1.45-6.117,4.119-1.287,4.119-1.287s-.9-7.724,2.575-13c2.933-4.452,3.6.772,3.6.772s.9-9.526,4.892-12.487,3.6,2.06,3.6,2.06S26.54-2.275,30.4.557,25,12.143,25,12.143s4.377-1.287,4.634,2.188S16.5,23.6,16.5,23.6s4.634.257,3.991,3.733-8.883,5.922-8.883,5.922S16.37,33,15.6,36.216s-9.49,8.635-12.23,7.724" transform="translate(180.37 174.283)" fill="#a4c43a"/>
        <path id="Path-95" data-name="Path" d="M21.663,11.99S30.932,3.236,27.07.4A2.768,2.768,0,0,0,26.3,0c2.593,3.3-8.105,13.406-8.105,13.406s4.506-1.416,4.763,2.06-13,8.239-13,8.239,4.763.386,4.119,3.862S5.062,33.36,5.062,33.36s4.892-.129,4.119,3.09c-.574,2.392-5.543,6-9.181,7.32l.041.018c2.739.911,11.457-4.506,12.23-7.724S8.28,33.1,8.28,33.1s8.239-2.446,8.883-5.922-3.991-3.733-3.991-3.733S26.56,17.654,26.3,14.179s-4.634-2.188-4.634-2.188" transform="translate(183.702 174.436)" fill="#a4c43a"/>
        <path id="Path-96" data-name="Path" d="M0,43.126S-.642,19.7,21.629,0" transform="translate(182.835 180.633)" fill="none" stroke="#76b743" stroke-linecap="round" stroke-width="1"/>
        <path id="Path-97" data-name="Path" d="M27.975,43.94c2.7-.9,4.119-8.5,2.961-13.388-1.45-6.117-4.119-1.287-4.119-1.287s.9-7.724-2.575-13c-2.933-4.452-3.6.772-3.6.772s-.9-9.526-4.892-12.487-3.6,2.06-3.6,2.06S4.8-2.275.941.557,6.348,12.143,6.348,12.143s-4.377-1.287-4.634,2.188S14.845,23.6,14.845,23.6s-4.634.257-3.991,3.733,8.883,5.922,8.883,5.922S14.973,33,15.746,36.216s9.493,8.635,12.23,7.724" transform="translate(144.198 174.283)" fill="#76b743"/>
        <path id="Path-98" data-name="Path" d="M1.709,14.179c-.257,3.476,13.131,9.269,13.131,9.269s-4.634.257-3.991,3.733S19.731,33.1,19.731,33.1s-4.763-.257-3.991,2.961,9.493,8.635,12.23,7.724l.041-.018c-3.635-1.318-8.607-4.928-9.181-7.32-.772-3.218,4.119-3.09,4.119-3.09s-8.368-2.317-9.011-5.793S18.058,23.7,18.058,23.7s-13.26-4.763-13-8.239,4.763-2.06,4.763-2.06S-.879,3.3,1.714,0A2.8,2.8,0,0,0,.941.4C-2.921,3.236,6.348,11.99,6.348,11.99S1.971,10.7,1.714,14.179" transform="translate(144.203 174.436)" fill="#76b743"/>
        <path id="Path-99" data-name="Path" d="M21.627,43.126S22.271,19.7,0,0" transform="translate(151.447 180.633)" fill="none" stroke="#619930" stroke-linecap="round" stroke-width="1"/>
        <path id="Path-100" data-name="Path" d="M0,0,1.735,19.336c0,4.634,3.46,8.386,7.724,8.386H35.018c4.269,0,7.724-3.754,7.724-8.386L44.477,0Z" transform="translate(155.541 219.266)" fill="#9a3333"/>
        <path id="Path-101" data-name="Path" d="M0,0,1,11.179c0,4.634,3.46,8.386,7.724,8.386H34.287c4.269,0,7.724-3.754,7.724-8.386L43.012,0Z" transform="translate(156.282 227.423)" fill="#592220"/>
      </g>
    </g>
  </g>
</svg>
