<svg xmlns="http://www.w3.org/2000/svg" xmlns:xlink="http://www.w3.org/1999/xlink" width="300" height="300" viewBox="0 0 300 300">
  <defs>
    <linearGradient id="linear-gradient" x1="0.5" x2="0.5" y2="1" gradientUnits="objectBoundingBox">
      <stop offset="0" stop-color="#f3931b"/>
      <stop offset="1" stop-color="#f7ca19"/>
    </linearGradient>
    <clipPath id="clip-path">
      <path id="Union_1" data-name="Union 1" d="M37.375,251.25C14.731,233.608,0,205.134,0,172.9q0-2.7.137-5.37V0h299.7V145.47q.152,3.15.152,6.336.027,3.6-.152,7.183v8.555h-.724a124.628,124.628,0,0,1-40.332,77.826,67.144,67.144,0,0,1-8.254,6.686,111.6,111.6,0,0,1-22.072,12.581c-17.976,8.388-44.469,17.023-80.947,19.994-4.112.341-8.159.5-12.114.5C77.68,285.134,37.375,251.25,37.375,251.25Z" fill="#fff" stroke="#707070" stroke-width="1"/>
    </clipPath>
    <clipPath id="clip-path-2">
      <rect id="Rectangle_12" data-name="Rectangle 12" width="278.644" height="285.196" fill="none"/>
    </clipPath>
    <clipPath id="clip-path-4">
      <rect id="Rectangle_8" data-name="Rectangle 8" width="102.846" height="70.188" fill="none"/>
    </clipPath>
    <clipPath id="clip-path-5">
      <rect id="Rectangle_7" data-name="Rectangle 7" width="102.846" height="70.187" fill="none"/>
    </clipPath>
  </defs>
  <g id="ilustrasi-search-2" transform="translate(2975 -2571)">
    <path id="Path" d="M-1026,142.636c0-45.621,29.51-83.845,69.228-94.136h0a126.3,126.3,0,0,0,26.252-9.657,158.24,158.24,0,0,0,20.94-13.4h0A108.651,108.651,0,0,1-840,0c62.742,0,113.7,54.411,113.7,121.543a124.7,124.7,0,0,1-41.169,93.563h0a67.1,67.1,0,0,1-8.246,6.685,111.466,111.466,0,0,1-22.051,12.581c-17.959,8.388-44.428,17.023-80.871,19.994-64.039,5.308-110.026-33.38-110.026-33.38h0C-1011.283,203.345-1026,174.871-1026,142.636Z" transform="translate(-1948.991 2616.029)" fill="url(#linear-gradient)"/>
    <rect id="Rectangle_14" data-name="Rectangle 14" width="300" height="300" transform="translate(-2975 2571)" fill="#fff" opacity="0"/>
    <g id="Group_10" data-name="Group 10" transform="translate(-2974.991 2585.766)">
      <g id="Mask_Group_2" data-name="Mask Group 2" transform="translate(0 0)" clip-path="url(#clip-path)">
        <g id="Group_9" data-name="Group 9" transform="translate(67.074 -0.065)">
          <g id="Group_8" data-name="Group 8" transform="translate(0)" clip-path="url(#clip-path-2)">
            <g id="Group_7" data-name="Group 7">
              <g id="Group_6" data-name="Group 6" clip-path="url(#clip-path-2)">
                <path id="Path_7" data-name="Path 7" d="M849.012,829.444a42.616,42.616,0,0,1,.534,7.784,52.433,52.433,0,0,1-3.2-8.378Z" transform="translate(-598.887 -586.496)" fill="#76b743"/>
                <path id="Path_8" data-name="Path 8" d="M329.613,42.933c-1.31,0-1.457-1.457-1.457-1.457a.449.449,0,1,0-.9,0s-.147,1.457-1.457,1.457a.449.449,0,1,0,0,.9c1.31,0,1.457,1.458,1.457,1.458a.449.449,0,0,0,.9,0s.147-1.458,1.457-1.458a.449.449,0,1,0,0-.9" transform="translate(-230.223 -29.031)" fill="#f9ce30"/>
                <path id="Path_9" data-name="Path 9" d="M309.153,2.971C307.11,2.971,306.881.7,306.881.7a.7.7,0,0,0-1.4,0s-.229,2.272-2.272,2.272a.7.7,0,1,0,0,1.4c2.042,0,2.272,2.272,2.272,2.272h0a.7.7,0,0,0,1.4,0h0s.229-2.272,2.272-2.272a.7.7,0,1,0,0-1.4" transform="translate(-214.061)" fill="#f9ce30"/>
                <path id="Path_10" data-name="Path 10" d="M276.171,26.639c-1.115,0-1.239-1.239-1.239-1.239a.381.381,0,1,0-.763,0s-.125,1.239-1.239,1.239a.381.381,0,1,0,0,.763c1.114,0,1.239,1.24,1.239,1.24a.381.381,0,0,0,.763,0s.125-1.24,1.239-1.24a.381.381,0,1,0,0-.763" transform="translate(-192.858 -17.703)" fill="#f9ce30"/>
                <path id="Path_11" data-name="Path 11" d="M555.894,876.048s-.019,5.928.073,7.456c.16,2.638-1.9,8.48-1.9,8.48l14.839.512a31.6,31.6,0,0,1-.8-4.532c-.146-1.974-.366-12.427-.366-12.427Z" transform="translate(-392.064 -619.531)" fill="#ffd3a4"/>
                <path id="Path_12" data-name="Path 12" d="M572.3,881.612c-.081-3.084-.144-6.075-.144-6.075l-11.842.512s-.013,3.882.031,6.173c1.8.005,9.284-.5,11.954-.61" transform="translate(-396.483 -619.532)" fill="#f2ac7c"/>
                <path id="Path_13" data-name="Path 13" d="M512.254,920.755a19.01,19.01,0,0,0,7.109-3.639,12.134,12.134,0,0,0,3.509-4.605c.731-1.9,3.186-1.164,4.386-.8s1.243,2.193.439,4.021c-.531,1.207-2.293,3.464-6.311,6.043a19.894,19.894,0,0,1-8.1,2.939Z" transform="translate(-362.477 -644.81)" fill="#0b71aa"/>
                <path id="Path_14" data-name="Path 14" d="M515.986,933.471l-.6-3.118a21.554,21.554,0,0,0,7.376-2.879,17.441,17.441,0,0,0,5.761-6.1c.54-1.259,2.632,2.241,6.238,2.144,5.167-.14,7.894-2.632,8.187-.585a35.8,35.8,0,0,1,1.243,10.357s-5.537.6-11.893.6-16.311-.42-16.311-.42" transform="translate(-364.693 -651.773)" fill="#006293"/>
                <rect id="Rectangle_1" data-name="Rectangle 1" width="40.633" height="0.799" transform="translate(138.865 284.396)" fill="#fff"/>
                <rect id="Rectangle_2" data-name="Rectangle 2" width="27.745" height="2.878" transform="translate(151.753 281.518)" fill="#c4c6c6"/>
                <path id="Path_15" data-name="Path 15" d="M474.929,948.585a2.135,2.135,0,0,1,1.634-2.1c1.739-.539,9.279-2.754,9.279-2.754s1.515,1.5,1.515,4.853Z" transform="translate(-336.064 -667.787)" fill="#fff"/>
                <path id="Path_16" data-name="Path 16" d="M522.152,954.354c-.027,0-.055,0-.083,0a1,1,0,0,1,.081-1.99c.027,0,.055,0,.082,0a1,1,0,0,1-.08,1.99Zm0-1.409a.412.412,0,0,0-.033.823h.035a.412.412,0,0,0,.032-.823Z" transform="translate(-368.775 -673.893)" fill="#b7b7b7"/>
                <path id="Path_17" data-name="Path 17" d="M536.821,948.618c-.027,0-.055,0-.083,0a1,1,0,0,1,.081-1.99c.027,0,.055,0,.082,0a1,1,0,0,1-.08,1.991Zm0-1.409a.412.412,0,0,0-.033.823h.035a.412.412,0,0,0,.032-.823Z" transform="translate(-379.154 -669.833)" fill="#b7b7b7"/>
                <path id="Path_18" data-name="Path 18" d="M549.755,938.875c-.027,0-.055,0-.082,0a1,1,0,0,1,.081-1.99c.027,0,.055,0,.082,0a1,1,0,0,1-.081,1.99Zm0-1.409a.414.414,0,0,0-.409.378.412.412,0,0,0,.376.444h.035a.412.412,0,0,0,.033-.823Z" transform="translate(-388.307 -662.939)" fill="#b7b7b7"/>
                <path id="Path_19" data-name="Path 19" d="M560.446,928.949c-.027,0-.055,0-.082,0a1,1,0,0,1,.081-1.991c.027,0,.055,0,.082,0a1,1,0,0,1-.08,1.991Zm0-1.409a.412.412,0,0,0-.033.823h.035a.412.412,0,0,0,.033-.823Z" transform="translate(-395.872 -655.915)" fill="#b7b7b7"/>
                <path id="Path_20" data-name="Path 20" d="M519.363,944.964a.292.292,0,0,1-.29-.256h0a6.06,6.06,0,0,0-.288-1.069,14.869,14.869,0,0,0-1.425-2.908.292.292,0,0,1,.5-.308,11.685,11.685,0,0,1,1.8,4.211.292.292,0,0,1-.254.326Z" transform="translate(-366.059 -665.349)" fill="#fff"/>
                <path id="Path_21" data-name="Path 21" d="M531.637,939.464a.293.293,0,0,1-.277-.2,9.021,9.021,0,0,0-2.679-3.954.292.292,0,1,1,.357-.464,7.942,7.942,0,0,1,1.105,1.1,9.7,9.7,0,0,1,1.771,3.13.293.293,0,0,1-.277.385Z" transform="translate(-374.02 -661.457)" fill="#fff"/>
                <path id="Path_22" data-name="Path 22" d="M541.838,930.556a.292.292,0,0,1-.259-.156,7.612,7.612,0,0,0-2.233-2.491,8.135,8.135,0,0,0-1.354-.814.292.292,0,0,1,.234-.536,8.514,8.514,0,0,1,1.452.867,8.2,8.2,0,0,1,2.418,2.7.293.293,0,0,1-.258.429Z" transform="translate(-380.566 -655.619)" fill="#fff"/>
                <path id="Line_1" data-name="Line 1" d="M4.48,2.781a.291.291,0,0,1-.153-.043L-.861-.459a.292.292,0,0,1-.1-.4.292.292,0,0,1,.4-.1l5.188,3.2a.292.292,0,0,1-.154.541Z" transform="translate(160.008 269.452)" fill="#fff"/>
                <path id="Path_23" data-name="Path 23" d="M516.658,913.736h0a9.1,9.1,0,0,1,2.09.236,7.623,7.623,0,0,1,1.5.521,5.058,5.058,0,0,1,1.232.781l.5.47-.683.035c-1.725.088-3.225,1.311-4.548,2.39a17.025,17.025,0,0,1-1.635,1.233,3.1,3.1,0,0,1-1.634.569,1.876,1.876,0,0,1-.49-.065,2.73,2.73,0,0,1-1.942-2.758,2.89,2.89,0,0,1,.879-1.953,4.951,4.951,0,0,1,2.644-1.256A11.273,11.273,0,0,1,516.658,913.736Zm3.854,1.558a5.93,5.93,0,0,0-.537-.285,7.822,7.822,0,0,0-3.316-.689h0a10.689,10.689,0,0,0-1.979.193,4.388,4.388,0,0,0-2.339,1.094,2.316,2.316,0,0,0-.709,1.562,2.267,2.267,0,0,0,.4,1.367,2,2,0,0,0,1.114.8,1.291,1.291,0,0,0,.337.044c.85,0,1.846-.812,2.9-1.671A10.4,10.4,0,0,1,520.511,915.294Z" transform="translate(-361.621 -646.562)" fill="#fff"/>
                <path id="Path_24" data-name="Path 24" d="M538.2,898.539c-.1,0-.2,0-.3-.012a4.293,4.293,0,0,1-2.076-.767,7.583,7.583,0,0,1-2.43-2.936,6,6,0,0,1-.712-3.157,3.77,3.77,0,0,0-.08-1.489,3.084,3.084,0,0,0-.472-1,2.774,2.774,0,0,0-.76-.734l.037-.076-.217.15-.1-.41a8.875,8.875,0,0,0-.878-2.039,8.152,8.152,0,0,0-1.279-1.679,6.387,6.387,0,0,0-1.992-1.362,3.149,3.149,0,0,1-1.765-1.94,6.493,6.493,0,0,1-.271-2.607,13.592,13.592,0,0,1,.676-3.257.292.292,0,0,1,.55.2h0a13.228,13.228,0,0,0-.644,3.111,5.908,5.908,0,0,0,.241,2.365,2.888,2.888,0,0,0,.533.939,2.5,2.5,0,0,0,.909.654,6.965,6.965,0,0,1,2.183,1.494,8.743,8.743,0,0,1,1.373,1.807,9.981,9.981,0,0,1,.812,1.785,23.148,23.148,0,0,1,2.7-1.494,11.931,11.931,0,0,1,2.645-.916,3.816,3.816,0,0,1,2.469.18,2.99,2.99,0,0,1,1.418,2.846,1.652,1.652,0,0,1-.7,1.5,3.731,3.731,0,0,1-2.329.43,15.165,15.165,0,0,1-2.845-.509c-.824-.217-1.6-.47-2.216-.684a3.675,3.675,0,0,1,.494,1.087,4.352,4.352,0,0,1,.095,1.719,5.422,5.422,0,0,0,.658,2.823,6.993,6.993,0,0,0,2.234,2.709,3.717,3.717,0,0,0,1.794.668,3.573,3.573,0,0,0,2.049-.493.292.292,0,0,1,.286.51A4.232,4.232,0,0,1,538.2,898.539Zm-6.289-10.5a31.245,31.245,0,0,0,3.132,1.022,14.572,14.572,0,0,0,2.73.489,3.205,3.205,0,0,0,1.958-.328,1.089,1.089,0,0,0,.449-1.007,3.677,3.677,0,0,0-.338-1.569,1.7,1.7,0,0,0-.759-.771c-.938-.475-2.527-.219-4.6.741A22.8,22.8,0,0,0,531.907,888.036Z" transform="translate(-371.407 -619.177)" fill="#fff"/>
                <path id="Line_2" data-name="Line 2" d="M26.558-.415H-.708A.292.292,0,0,1-1-.708.292.292,0,0,1-.708-1H26.558a.292.292,0,0,1,.292.292A.292.292,0,0,1,26.558-.415Z" transform="translate(153.1 283.824)" fill="#592220"/>
                <path id="Path_25" data-name="Path 25" d="M487.123,961.509a1.316,1.316,0,0,0-1.179-1.179H473.516a2.978,2.978,0,0,0-.585,1.839,2.611,2.611,0,0,0,.585,1.759h13.607Z" transform="translate(-334.651 -679.532)" fill="#fff"/>
                <path id="Path_26" data-name="Path 26" d="M805.442,805.545s4.255,8.266,5.23,10.6c1.016,2.44,3.05,9.588,3.05,9.588l10.75-14.381s-3.323-1.456-4.447-3.373c-.492-.84-2.962-6.941-4.269-8.975Z" transform="translate(-569.94 -565.38)" fill="#ffd3a4"/>
                <path id="Path_27" data-name="Path 27" d="M823.649,883.822a19.027,19.027,0,0,0,.673-7.958,12.147,12.147,0,0,0-2.051-5.414c-1.226-1.626.7-3.32,1.638-4.147s2.518.106,3.644,1.755c.744,1.09,1.727,3.779,1.789,8.552a19.893,19.893,0,0,1-1.79,8.425Z" transform="translate(-581.568 -612.781)" fill="#0b71aa"/>
                <path id="Path_28" data-name="Path 28" d="M838.353,863.821l-2.963-1.141a21.55,21.55,0,0,0,1.46-7.782,17.422,17.422,0,0,0-2.127-8.115c-.783-1.124,3.295-1.047,5.12-4.158,2.616-4.459,1.944-8.092,3.836-7.257a35.808,35.808,0,0,1,9.446,4.425s-2.422,5.017-5.785,10.41-8.987,13.619-8.987,13.619" transform="translate(-590.59 -591.022)" fill="#006293"/>
                <rect id="Rectangle_3" data-name="Rectangle 3" width="40.634" height="0.799" transform="translate(243.478 284.773) rotate(-58.055)" fill="#fff"/>
                <rect id="Rectangle_4" data-name="Rectangle 4" width="27.746" height="2.878" transform="translate(247.854 272.313) rotate(-58.054)" fill="#c4c6c6"/>
                <path id="Path_29" data-name="Path 29" d="M819.831,938.635a2.135,2.135,0,0,1-.917-2.5c.462-1.761,2.573-9.331,2.573-9.331s2.07-.5,4.919,1.282Z" transform="translate(-579.406 -655.766)" fill="#fff"/>
                <path id="Path_30" data-name="Path 30" d="M842.258,919.476a1,1,0,0,1,.8,1.592,1,1,0,0,1-.8.4,1,1,0,0,1-.8-1.591A1,1,0,0,1,842.258,919.476Zm0,1.409a.413.413,0,1,0-.246-.082A.409.409,0,0,0,842.257,920.884Z" transform="translate(-595.286 -650.623)" fill="#b7b7b7"/>
                <path id="Path_31" data-name="Path 31" d="M845.152,903.992a1,1,0,0,1,.8,1.592,1,1,0,0,1-.8.4,1,1,0,0,1-.8-1.592A1,1,0,0,1,845.152,903.992Zm0,1.409a.412.412,0,1,0-.245-.081A.409.409,0,0,0,845.15,905.4Z" transform="translate(-597.333 -639.667)" fill="#b7b7b7"/>
                <path id="Path_32" data-name="Path 32" d="M843.729,887.861a1,1,0,0,1,.8,1.592,1,1,0,0,1-.8.4,1,1,0,0,1-.8-1.591A1,1,0,0,1,843.729,887.861Zm0,1.409a.412.412,0,1,0-.245-.081A.408.408,0,0,0,843.727,889.271Z" transform="translate(-596.326 -628.253)" fill="#b7b7b7"/>
                <path id="Path_33" data-name="Path 33" d="M840.962,873.537a1,1,0,0,1,.8,1.592,1,1,0,0,1-.8.4,1,1,0,0,1-.8-1.592A1,1,0,0,1,840.962,873.537Zm0,1.409a.412.412,0,1,0-.246-.082A.408.408,0,0,0,840.961,874.947Z" transform="translate(-594.368 -618.117)" fill="#b7b7b7"/>
                <path id="Path_34" data-name="Path 34" d="M832.767,920.784a.291.291,0,0,1-.122-.027h0a6.066,6.066,0,0,0-1.059-.321,14.874,14.874,0,0,0-3.222-.329.292.292,0,0,1,0-.585h0a11.69,11.69,0,0,1,4.524.7.293.293,0,0,1-.123.558Z" transform="translate(-585.954 -650.656)" fill="#fff"/>
                <path id="Path_35" data-name="Path 35" d="M829.653,906.595a.292.292,0,0,1-.1-.566,7.946,7.946,0,0,1,1.521-.354,9.7,9.7,0,0,1,3.592.153.292.292,0,1,1-.137.568,9.016,9.016,0,0,0-4.772.181A.291.291,0,0,1,829.653,906.595Z" transform="translate(-586.865 -640.787)" fill="#fff"/>
                <path id="Path_36" data-name="Path 36" d="M827.546,892.142a.292.292,0,0,1-.166-.533,8.527,8.527,0,0,1,1.5-.773,8.206,8.206,0,0,1,3.57-.624.292.292,0,1,1-.041.583,8.308,8.308,0,0,0-4.7,1.3A.291.291,0,0,1,827.546,892.142Z" transform="translate(-585.375 -629.904)" fill="#fff"/>
                <path id="Line_3" data-name="Line 3" d="M-.708,2.3A.292.292,0,0,1-.97,2.134a.292.292,0,0,1,.132-.392L4.619-.97a.292.292,0,0,1,.392.132.292.292,0,0,1-.132.392L-.578,2.265A.291.291,0,0,1-.708,2.3Z" transform="translate(241.717 257.147)" fill="#fff"/>
                <path id="Path_37" data-name="Path 37" d="M813.235,884.015l-.332.6c-.838,1.51-.593,3.43-.378,5.124a14.241,14.241,0,0,1,.176,2.312,2.451,2.451,0,0,1-.689,1.8,2.586,2.586,0,0,1-1.773.678A2.828,2.828,0,0,1,807.9,893.3a3.218,3.218,0,0,1-.539-1.674,5.521,5.521,0,0,1,.421-2.274,10.714,10.714,0,0,1,1.447-2.626,8.3,8.3,0,0,1,1.556-1.57,5.6,5.6,0,0,1,1.785-.963Zm-3,9.925a2,2,0,0,0,1.374-.521c.707-.658.533-2.025.332-3.608a10.409,10.409,0,0,1,.133-4.788,6.243,6.243,0,0,0-.961.613,7.739,7.739,0,0,0-1.434,1.459,10.143,10.143,0,0,0-1.353,2.464,4.946,4.946,0,0,0-.382,2.032,2.643,2.643,0,0,0,.438,1.375A2.244,2.244,0,0,0,810.239,893.94Z" transform="translate(-571.296 -625.531)" fill="#fff"/>
                <path id="Path_38" data-name="Path 38" d="M799.673,865.9a8.869,8.869,0,0,1-.908-.047,6,6,0,0,1-3.056-1.067,3.369,3.369,0,0,0-2.373-.848,2.78,2.78,0,0,0-1.053.259l-.044-.07.013.262-.4-.13a8.873,8.873,0,0,0-2.194-.334,8.139,8.139,0,0,0-2.1.2,6.383,6.383,0,0,0-2.21.97,3.15,3.15,0,0,1-2.58.47,6.5,6.5,0,0,1-2.355-1.15,13.587,13.587,0,0,1-2.405-2.3.292.292,0,0,1,.459-.362h0a13.229,13.229,0,0,0,2.3,2.193,5.91,5.91,0,0,0,2.134,1.046,2.882,2.882,0,0,0,1.079.044,2.494,2.494,0,0,0,1.036-.425,6.966,6.966,0,0,1,2.423-1.062,8.751,8.751,0,0,1,2.26-.209,9.995,9.995,0,0,1,1.944.255,23.172,23.172,0,0,1,.158-3.078,11.932,11.932,0,0,1,.622-2.73,3.816,3.816,0,0,1,1.459-2,2.991,2.991,0,0,1,3.165.3,1.652,1.652,0,0,1,.905,1.391,3.732,3.732,0,0,1-.867,2.2,15.163,15.163,0,0,1-1.937,2.145c-.62.584-1.248,1.112-1.753,1.519a3.671,3.671,0,0,1,1.184.156,4.351,4.351,0,0,1,1.509.829,5.423,5.423,0,0,0,2.743.936,6.992,6.992,0,0,0,3.48-.462,3.718,3.718,0,0,0,1.516-1.169,3.573,3.573,0,0,0,.666-2,.292.292,0,0,1,.292-.279h.014a.292.292,0,0,1,.278.306,4.146,4.146,0,0,1-.781,2.321,4.292,4.292,0,0,1-1.75,1.356A7.162,7.162,0,0,1,799.673,865.9Zm-4.608-9.854a1.666,1.666,0,0,0-.885.243c-.9.545-1.524,2.032-1.8,4.3a22.774,22.774,0,0,0-.154,2.929,31.247,31.247,0,0,0,2.525-2.117,14.564,14.564,0,0,0,1.859-2.057,3.2,3.2,0,0,0,.758-1.835,1.088,1.088,0,0,0-.616-.913,3.675,3.675,0,0,0-1.51-.543Q795.149,856.044,795.065,856.044Z" transform="translate(-550.48 -605.324)" fill="#fff"/>
                <path id="Line_4" data-name="Line 4" d="M-.708,22.722a.291.291,0,0,1-.154-.044.292.292,0,0,1-.093-.4L13.47-.862a.292.292,0,0,1,.4-.093.292.292,0,0,1,.093.4L-.46,22.584A.292.292,0,0,1-.708,22.722Z" transform="translate(250.258 250.187)" fill="#592220"/>
                <path id="Path_39" data-name="Path 39" d="M830.48,929.727a1.317,1.317,0,0,0-1.625.377L822.28,940.65a2.975,2.975,0,0,0,1.251,1.469,2.616,2.616,0,0,0,1.8.434l7.2-11.547-2.053-1.28" transform="translate(-581.855 -657.781)" fill="#fff"/>
                <path id="Path_40" data-name="Path 40" d="M807.822,810.232l9.35-8.522a26.841,26.841,0,0,0-1.417-2.7l-10.314,6.537s1.144,2.222,2.381,4.687" transform="translate(-569.939 -565.38)" fill="#f2ac7c"/>
                <path id="Path_41" data-name="Path 41" d="M511.915,362.135s10.592,3.118,15.909,13.421c3.119,6.043,22.514,52.144,23.683,53.509a21.8,21.8,0,0,1,3.119,6.433,28.429,28.429,0,0,0,1.949,4.483,156.844,156.844,0,0,1,10.916,15.4c4.288,7.407,15.407,35.8,15.407,35.8l-13.51,8.28s-21.975-39.014-24.7-44.472c-1.988-3.976-5.263-7.407-7.8-12.086s-29.944-41.394-29.944-41.394c.78,7.018,2.233,47.6,2.654,50.556.195,1.364,1.559,2.339,1.559,3.9a21.558,21.558,0,0,1-.39,3.509s3.9,11.5,2.729,28.46c-.705,10.226-.78,29.045-.78,29.045L498,517.272s-2.436-35.575-4.776-54.484c-.289-2.339-1.338-3.959-2.339-8.967-.585-2.924,0-3.7-.585-8.382s-10.429-43.372-11.013-48.246c-1.608-1.462-1.2-1.9-1.316-4.824-.146-3.655-4.067-20.585-4.067-20.585Z" transform="translate(-335.341 -256.248)" fill="#9a3333"/>
                <path id="Path_42" data-name="Path 42" d="M527.958,373.87a33.806,33.806,0,0,0-15.237-14.49L473.9,369.835s3.921,16.931,4.067,20.586c.117,2.922-.292,3.363,1.316,4.824.585,4.873,10.429,43.567,11.013,48.246s0,5.458.585,8.382c1,5.007,2.05,6.627,2.339,8.967,2.339,18.908,4.776,54.484,4.776,54.484l14.717-.292s.037-9.408.308-18.536c-2.656-16.236-8.839-40.554-8.593-47.449.143-4.011,2.111-12.581,4.081-20.282-.542-12.072-1.152-25.446-1.569-29.2,0,0,3.128,4.189,7.366,9.916,1.14-1.942,2.935-3.859,5.619-4,3.314-.174,14.94.9,22.7,1.795-5.971-13.514-12.962-30.092-14.672-33.4" transform="translate(-335.341 -254.298)" fill="#592220"/>
                <path id="Path_43" data-name="Path 43" d="M367.57,13.11s5.08-5.622,15.606-3.282,14,17.442,18.908,20.028c7.212,3.8,8.479,1.754,15.107.39s23.586,3.216,22.9,19.688c-.8,19.282-33.722,26.56-48.732,22.272s-33.357-19.984-30.2-49.535a11.669,11.669,0,0,1,6.407-9.561" transform="translate(-255.309 -6.551)" fill="#592220"/>
                <path id="Path_44" data-name="Path 44" d="M399.954,327.228a7.075,7.075,0,0,0-1.066-5.439l-3.07,1.243s1.548,3.277,4.136,4.2" transform="translate(-280.085 -227.699)" fill="#592220"/>
                <path id="Path_45" data-name="Path 45" d="M325.526,233.891s-1.812,3.282,1.509,7.6a15.482,15.482,0,0,0,1.749,1.711l-6.38.989a8.173,8.173,0,0,1-3.384,3.221c-2.339,1.17-10.014,2.778-13.377,1.023s-5.117-1.462-7.163-2.778-3.655-1.462-3.143-5.994,3.289-11.769,4.167-14.693,6.14-11.184,8.552-14.912,4.459-5.994,8.772-7.018c2.778,3.874,8.139,16.382,8.406,21.2.146,2.632-7.748,7.895-7.748,7.895a3.554,3.554,0,0,1,1.462-.146c1.243,0,1.71.637,2.3,1.718Z" transform="translate(-208.915 -143.672)" fill="#d73930"/>
                <path id="Path_46" data-name="Path 46" d="M403.13,153.065s-6.335,6.433-8.479,7.213c.292,4.288,5.848,12.67,17.446,10.136s19.2-11.687,21.344-17.827a71.449,71.449,0,0,1-16.276-3.713Z" transform="translate(-279.26 -105.344)" fill="#ffd3a4"/>
                <path id="Path_47" data-name="Path 47" d="M419.678,123.533s-4.288-7.018-5.36-10.039c2.826-1.365,10.721-14.62,10.721-14.62s3.411,11.793,9.356,17.836c-1.072,4.873-11.306,12.378-14.717,6.823" transform="translate(-293.176 -69.963)" fill="#ffd3a4"/>
                <path id="Path_48" data-name="Path 48" d="M425.038,118.873l-7.385,5.31a13.373,13.373,0,0,1-3.336,3.462,30.891,30.891,0,0,0,1.684,3.6,5.5,5.5,0,0,0,4.359-.873c3.8-2.242,5.068-8.48,4.678-11.5" transform="translate(-293.175 -84.115)" fill="#f2ac7c"/>
                <path id="Path_49" data-name="Path 49" d="M372.705,29.663s-4.691,2.979-5.848,8.04c-1.755,7.674-.219,7.6.512,11.257s-.106,5.674,2.266,9.357c2.778,4.313,6.652,7.31,8.406,7.749s13.669-6.8,13.377-12.426A68.494,68.494,0,0,0,389.225,39.6s-5.263-12.573-16.52-9.942" transform="translate(-259.02 -20.733)" fill="#ffd3a4"/>
                <path id="Path_50" data-name="Path 50" d="M373.928,93.488c.084.545.46.94.839.882s.618-.548.534-1.093-.459-.94-.838-.882-.619.548-.535,1.093" transform="translate(-264.584 -65.375)" fill="#231f20"/>
                <path id="Path_51" data-name="Path 51" d="M382.317,109.789s2.924.658,3.947.073c-1.754,1.535-2.047,1.535-2.558,1.389s-1.389-1.462-1.389-1.462" transform="translate(-270.532 -77.687)" fill="#9a3333"/>
                <path id="Path_52" data-name="Path 52" d="M389.286,119.434a.219.219,0,0,1-.166-.362,7.875,7.875,0,0,1,2.109-1.576,10.686,10.686,0,0,1,2.633-.993,12.557,12.557,0,0,1,3.7-.285.219.219,0,0,1-.029.438,12.119,12.119,0,0,0-3.57.274,10.249,10.249,0,0,0-2.525.951,7.552,7.552,0,0,0-1.985,1.476A.219.219,0,0,1,389.286,119.434Z" transform="translate(-275.308 -82.215)" fill="#9a3333"/>
                <path id="Path_53" data-name="Path 53" d="M417.064,115.994a.146.146,0,0,1-.129-.077c-.462-.859-.825-.976-.829-.977h0l.068-.284c.048.012.487.142,1.014,1.121a.146.146,0,0,1-.129.216Z" transform="translate(-294.441 -81.131)" fill="#9a3333"/>
                <path id="Path_54" data-name="Path 54" d="M398.259,127.978c-.3-.6,2.339-1.681,2.778-1.1s-2.339,1.974-2.778,1.1" transform="translate(-281.796 -89.662)" fill="#f2ac7c"/>
                <path id="Path_55" data-name="Path 55" d="M367.265,75.844a.292.292,0,0,1-.289-.25,5.031,5.031,0,0,1-.02-1.114,1.843,1.843,0,0,1,.925-1.61,2.173,2.173,0,0,1,1.969.4,6.651,6.651,0,0,1,.98.75.292.292,0,0,1-.4.423,6.153,6.153,0,0,0-.892-.681c-.765-.473-1.2-.456-1.422-.359-.4.17-.531.709-.573,1.131a4.462,4.462,0,0,0,.017.97.292.292,0,0,1-.246.332A.3.3,0,0,1,367.265,75.844Z" transform="translate(-259.647 -51.49)" fill="#592220"/>
                <path id="Path_56" data-name="Path 56" d="M390.91,70.2a1.427,1.427,0,0,1-.359-.041l.156-.564h0a1.425,1.425,0,0,0,1.5-.821,7.007,7.007,0,0,1,1.916-2.193,3.96,3.96,0,0,1,1.494-.622,4.948,4.948,0,0,1,1.943.05.292.292,0,1,1-.12.572,3.705,3.705,0,0,0-2.987.483,6.482,6.482,0,0,0-1.747,2.016,2.209,2.209,0,0,1-1.385,1.073A1.847,1.847,0,0,1,390.91,70.2Z" transform="translate(-276.358 -46.622)" fill="#592220"/>
                <path id="Path_57" data-name="Path 57" d="M400.785,79.7c-.955.456-1.455,1.321-1.718,1.133a2.427,2.427,0,0,1,1.681-1.791c1.535-.585,2.229-.366,2.01,0-.107.178-1.07.227-1.974.658" transform="translate(-282.384 -55.674)" fill="#231f20"/>
                <path id="Path_58" data-name="Path 58" d="M446.982,69.507a2.7,2.7,0,0,1,3.063-1.458c2.177.494,3.839,6.315-2.6,10.183Z" transform="translate(-316.289 -48.095)" fill="#ffd3a4"/>
                <path id="Path_59" data-name="Path 59" d="M449.215,76.085a.219.219,0,0,1-.218-.2A3.357,3.357,0,0,1,449.756,73a2.413,2.413,0,0,1,1.9-.565.219.219,0,0,1-.07.433,2,2,0,0,0-1.531.456,2.967,2.967,0,0,0-.618,2.518.219.219,0,0,1-.2.239Z" transform="translate(-317.694 -51.243)" fill="#9a3333"/>
                <path id="Path_60" data-name="Path 60" d="M452.547,77.749a.219.219,0,0,1-.207-.148,1.4,1.4,0,0,0-1.041-.959,2.014,2.014,0,0,0-.741-.038.219.219,0,0,1-.076-.432,2.461,2.461,0,0,1,.921.044,1.837,1.837,0,0,1,1.352,1.242.219.219,0,0,1-.207.291Z" transform="translate(-318.638 -53.882)" fill="#9a3333"/>
                <path id="Path_61" data-name="Path 61" d="M453.96,102.247a2.909,2.909,0,0,1-1.847-.739,5.206,5.206,0,0,1-1.621-2.666,5.529,5.529,0,0,1-.124-2.356.146.146,0,1,1,.288.05,5.236,5.236,0,0,0,.118,2.23,4.913,4.913,0,0,0,1.525,2.516,2.22,2.22,0,0,0,3.751-1,5.238,5.238,0,0,0-1.453-5.458,2.415,2.415,0,0,0-2.17-.605,2.029,2.029,0,0,0-.875.5.146.146,0,0,1-.2-.213,2.318,2.318,0,0,1,1-.565,2.7,2.7,0,0,1,2.432.663,5.528,5.528,0,0,1,1.54,5.785,2.7,2.7,0,0,1-1.781,1.785A2.267,2.267,0,0,1,453.96,102.247Z" transform="translate(-318.633 -66.417)" fill="#f9ce30"/>
                <path id="Path_62" data-name="Path 62" d="M359.819,20.6a13.122,13.122,0,0,0,6.656,5.076c4.026,1.39,10.441.851,13.024,1.451.478,1.912,2.288,5.262,3.364,5.979-1.076-3.466-.3-4.867.422-5.7-1.9-6.229-1.973-14.375-8.405-17.786-11.891-1.657-23.3,14.312-16.724,20.636.034-2.863,1.664-9.652,1.664-9.652" transform="translate(-252.071 -6.72)" fill="#592220"/>
                <path id="Path_63" data-name="Path 63" d="M386.943,101.641c.156-.451,1.062.524.7,1.013s-.9-.442-.7-1.013" transform="translate(-273.776 -71.839)" fill="#fff"/>
                <path id="Path_64" data-name="Path 64" d="M467.234,184.943a4.472,4.472,0,0,1,2.339-1.852c1.462-.39,13.255-3.8,13.255-3.8" transform="translate(-330.62 -126.866)" fill="none" stroke="#f2ac7c" stroke-linecap="round" stroke-width="2"/>
                <path id="Path_65" data-name="Path 65" d="M407.691,199.4a5.728,5.728,0,0,0-3.606-1.365c-2.144,0-7.017.1-7.017.1" transform="translate(-280.97 -140.133)" fill="none" stroke="#f2ac7c" stroke-linecap="round" stroke-width="2"/>
                <path id="Path_66" data-name="Path 66" d="M379.542,320.9a.291.291,0,0,1-.093-.015,4.6,4.6,0,0,1-1.073-.581,5.516,5.516,0,0,1-1.793-2.128,6.52,6.52,0,0,1-.594-2.837,11.982,11.982,0,0,1,.846-4.113.292.292,0,0,1,.548.2,11.407,11.407,0,0,0-.809,3.909,5.941,5.941,0,0,0,.537,2.585,4.826,4.826,0,0,0,2.525,2.406.292.292,0,0,1-.093.57Z" transform="translate(-266.054 -220.092)" fill="#9a3333"/>
                <path id="Path_67" data-name="Path 67" d="M370.882,166.506s3.031,10.244,16.334,7.32,17.738-15.79,17.738-15.79,10.92,1.559,18.81,2.437c0,0,8.967,38.207,13.06,45.419a9.18,9.18,0,0,1-.39,9.942l1.364,3.9a42.8,42.8,0,0,1-23.586,14.815c-17.032,4.167-20.077,1.754-20.077,1.754l-2.534-3.9s-5.054-2.078-5.653-3.509c-3.509-8.382-12.67-28.215-15.545-31.675-1.86-2.239-10.087-12.427-10.087-12.427Z" transform="translate(-254.964 -111.827)" fill="#d73930"/>
                <rect id="Rectangle_5" data-name="Rectangle 5" width="8.477" height="139.225" transform="translate(111.891 81.664) rotate(-61.021)" fill="#9a3333"/>
                <path id="Path_68" data-name="Path 68" d="M497.276,320.432c1.135-2.048,1.348-4.1.477-4.582s-2.5.787-3.631,2.835-1.348,4.1-.477,4.583,2.5-.787,3.631-2.835" transform="translate(-348.93 -223.424)" fill="#f18700"/>
                <rect id="Rectangle_6" data-name="Rectangle 6" width="8.479" height="37.523" transform="matrix(0.484, -0.875, 0.875, 0.484, 111.89, 81.664)" fill="#f18700"/>
                <path id="Path_69" data-name="Path 69" d="M801.555,488.954c1.134-2.048,1.348-4.1.477-4.582s-2.5.787-3.631,2.835-1.348,4.1-.477,4.582,2.5-.787,3.631-2.835" transform="translate(-564.241 -342.671)" fill="#9a3333"/>
                <path id="Path_70" data-name="Path 70" d="M110.75,91.468a12.158,12.158,0,0,0,1.178-1.746c7.019-12.673-10.019-35.533-38.054-51.061S17.423,20.819,10.4,33.492a12.11,12.11,0,0,0-.855,1.925l-3.217-5.7,4.544-8.205c7.952-14.357,39.236-12.24,69.877,4.73s49.032,42.366,41.08,56.724l-4.545,8.205Z" transform="translate(-4.481 -8.483)" fill="#592220"/>
                <path id="Path_71" data-name="Path 71" d="M20.541,69.925c-5.479,9.893,15.739,34.321,39.751,47.62,23.479,13,47.619,16.008,58.838,9.435h0a12.275,12.275,0,0,1-1.168,2.987c-7.018,12.673-35.435,10.359-63.47-5.169S9.419,86.409,16.438,73.736a13.164,13.164,0,0,1,4.817-4.875,7.706,7.706,0,0,0-.714,1.064" transform="translate(-10.514 -48.726)" fill="#592220"/>
                <g id="Group_5" data-name="Group 5" transform="translate(6.357 15.595)" opacity="0.58">
                  <g id="Group_4" data-name="Group 4">
                    <g id="Group_3" data-name="Group 3" clip-path="url(#clip-path-4)">
                      <g id="Group_2" data-name="Group 2" transform="translate(0 0)">
                        <g id="Group_1" data-name="Group 1" clip-path="url(#clip-path-5)">
                          <path id="Path_72" data-name="Path 72" d="M61.233,109.978c27.618,15.3,55.35,18.049,61.941,6.148S112.72,82.177,85.1,66.88,29.751,48.831,23.16,60.732s10.454,33.949,38.073,49.246" transform="translate(-21.744 -53.335)" fill="#fff"/>
                        </g>
                      </g>
                    </g>
                  </g>
                </g>
                <path id="Path_73" data-name="Path 73" d="M42.933,106.3c30.64,16.97,61.923,19.088,69.875,4.731a14.63,14.63,0,0,0,1.641-4.806c2.36-14.733-15.262-36.708-42.721-51.916C41.087,37.335,9.8,35.216,1.852,49.574S12.293,89.327,42.933,106.3M68.049,60.791c27.438,15.2,44.442,36.977,37.979,48.646s-33.946,8.81-61.384-6.387S.2,66.073,6.664,54.4s33.946-8.811,61.385,6.387" transform="translate(0 -28.34)" fill="#9a3333"/>
                <path id="Path_74" data-name="Path 74" d="M38.184,78.084c-2.274-2.274,3.885-5.257,15.2-5.068,11.7.195,31.773,7.8,31.773,10.721S71.516,78.084,56.9,76.525c-15-1.6-16.959,3.314-18.713,1.559" transform="translate(-26.688 -51.66)" fill="#fff"/>
                <path id="Path_75" data-name="Path 75" d="M244.5,241.657c2.273,2.276-4.264,3.94-16.179,3.7-9.647-.191-31.333-7.752-30.408-10.526.975-2.924,10.916,5.068,27.95,7.56,13.69,2,16.884-2.493,18.637-.737" transform="translate(-140.026 -165.721)" fill="#fff"/>
                <path id="Path_76" data-name="Path 76" d="M400.642,283.273l4.594,2.544s1.619-.238,2.935-.384a27.208,27.208,0,0,1,2.485-1.827s-.037-2.924.8-4.313c.977-1.614,2.266-1.06,2.047,1.17,0,0,1.893-.342,1.893,1.291a1.138,1.138,0,0,1,1.726.719c.037.914.037,1.645.037,1.645s1.121-1.559,1.608.877c.184.919.975,3.655.731,4.094-.76,1.368-2.047,3.558-2.875,3.85-1.866.659-11.988.78-11.988.78l-6.14,1.072s-1.416-1.136-2.242-5.263c-.292-1.462,2.047-3.874,2.047-3.874Z" transform="translate(-280.377 -196.971)" fill="#ffd3a4"/>
                <path id="Path_77" data-name="Path 77" d="M413.507,304.183a34.114,34.114,0,0,1-4.288-3.216s-1.754-.244-2.144-1.413c-.253-.759.477-1.678,1.022-2.233-1.3.147-2.86.376-2.86.376l-4.594-2.544-2.339,2.379s-2.339,2.12-2.047,3.874c.692,4.152,2.242,5.263,2.242,5.263l6.14-1.072s9.448-.113,11.769-.715a6.528,6.528,0,0,1-2.9-.7" transform="translate(-280.377 -208.85)" fill="#f2ac7c"/>
                <path id="Path_78" data-name="Path 78" d="M445.619,292.781a.219.219,0,0,1-.144-.385c.011-.01,1.129-.983,2.137-1.942.491-.468.48-1.508.471-2.426,0-.128,0-.261,0-.388v-2.632a.219.219,0,1,1,.439,0v2.632c0,.125,0,.25,0,.383.011,1.007.023,2.149-.607,2.748-1.015.967-2.14,1.946-2.152,1.956A.219.219,0,0,1,445.619,292.781Z" transform="translate(-315.17 -201.517)" fill="#9a3333"/>
                <path id="Path_79" data-name="Path 79" d="M456.536,298.148a.219.219,0,0,1-.21-.282c.429-1.429,1.364-8.4,1.374-8.47a.219.219,0,1,1,.435.058c-.039.288-.95,7.076-1.388,8.538A.219.219,0,0,1,456.536,298.148Z" transform="translate(-322.895 -204.642)" fill="#9a3333"/>
                <path id="Path_80" data-name="Path 80" d="M421.2,302.542a9.676,9.676,0,0,1-2.148-.157.219.219,0,1,1,.126-.42,28.271,28.271,0,0,0,4.834.052.219.219,0,1,1,.026.438C423.945,302.461,422.534,302.542,421.2,302.542Z" transform="translate(-296.418 -213.665)" fill="#9a3333"/>
                <path id="Path_81" data-name="Path 81" d="M465.536,301.379h-.017a.219.219,0,0,1-.2-.235c.072-.937.5-8.33.5-8.4a.219.219,0,1,1,.438.025c0,.075-.433,7.472-.505,8.413A.219.219,0,0,1,465.536,301.379Z" transform="translate(-329.264 -206.996)" fill="#9a3333"/>
                <path id="Path_82" data-name="Path 82" d="M651.555,366.048l.439-5.556a6.556,6.556,0,0,1,4.02-2.047,8.242,8.242,0,0,1,4.824,1.17s-1.243,7.968-.95,8.991,4.9,5.263,5.409,6.579.512,2.851.877,3.947.073.658.439,3.289-.073,2.632-.731,2.412-1.243-1.389-1.462-2.339-.56-2.559-.56-2.559a22.29,22.29,0,0,1-2.778,2.924,14.968,14.968,0,0,1-3.509,1.511c-.682.1-.609-1.218-.609-1.218s-1.1.95-1.535.95-1.243-.439-.585-1.974,1.754-2.7,3-4.9c-.219-1.023-.657-4.118-.657-4.118s-.2.828-.39,1.8a3.831,3.831,0,0,1-1.511,2.68c-1.17.975-2.388,2.875-3.752,3.265s-1.5-.684-1.072-1.73a15.691,15.691,0,0,1,2.924-4.313l.069-3.917-3.761-2.083c.33-.33,1.865-2.773,1.865-2.773" transform="translate(-459.728 -253.609)" fill="#ffd3a4"/>
                <path id="Path_83" data-name="Path 83" d="M671.574,389.468c-1.534-1.087-3.883-2.534-4.764-2.608-1.169-.1-1.243,1.218-1.243,1.218a3.682,3.682,0,0,1,2.12.146c.8.439.8.95,1.389,1.316s1.754.219,2.778,1.316c.776.832,3.388,3.2,4.605,4.3-.64-1.218-3.7-4.163-4.884-5.691" transform="translate(-470.963 -273.74)" fill="#f2ac7c"/>
                <path id="Path_84" data-name="Path 84" d="M674.567,419.806s3.046-3.168,3.533-3.752a2.707,2.707,0,0,0,.634-2.29c-.146-1.023-.536-3.558-.536-3.558" transform="translate(-477.331 -290.263)" fill="none" stroke="#9a3333" stroke-linecap="round" stroke-width="1.5"/>
                <path id="Path_85" data-name="Path 85" d="M686.391,416.039s.244,1.657.488,3.168-.244,1.706-.536,2.1-2.1,2.193-2.1,2.193a15.578,15.578,0,0,1-2.1,1.218" transform="translate(-482.698 -294.39)" fill="none" stroke="#9a3333" stroke-linecap="round" stroke-width="1.5"/>
                <path id="Path_86" data-name="Path 86" d="M664.621,399.039s-.731,4.483-.877,5.068a2.833,2.833,0,0,1-.975,1.706c-.731.682-3.119,3.216-3.119,3.216" transform="translate(-466.777 -282.361)" fill="none" stroke="#9a3333" stroke-linecap="round" stroke-width="1.5"/>
                <path id="Path_87" data-name="Path 87" d="M657.353,357.85l-.089,1.952a9.016,9.016,0,0,1,8.807-1.162l.176-1.57a7.058,7.058,0,0,0-8.894.78" transform="translate(-465.087 -251.795)" fill="#f2ac7c"/>
                <path id="Path_88" data-name="Path 88" d="M567.908,223.335a9.311,9.311,0,0,1,5.19-2.047,7.976,7.976,0,0,1,5.263,1.9s1.316-4.605,1.243-4.825,1.462-.073,2.12-1.316.292-3.509.585-5.629,1.389-2.924,2.412-5.409-.731-12.354-.8-19.225-.292-10.307-2.851-11.842-28.588-8.748-36.11-9.918c-5.467-.851-9.649-1.706-12.353,5.458s.512,16.083,3.436,19.3S546.2,193.949,550,194.1s6.579-2.047,7.529-1.243,2.047,2.7,2.924,2.558a15.724,15.724,0,0,0,2.558-.877,4.225,4.225,0,0,0-.512,3.582c.658,1.974,1.462,2.924,1.535,4.825s-.8,9.8.365,11.988,3.07,2.485,3.143,2.924.365,5.482.365,5.482" transform="translate(-376.155 -116.379)" fill="#d73930"/>
                <path id="Path_89" data-name="Path 89" d="M639.067,236.813s1.389-.731,2.558-3.728,4.166-4.02,3.07-7.164-2.924-1.754-3.947,2.7.219,5.482-1.681,8.187" transform="translate(-452.211 -158.658)" fill="#9a3333"/>
                <path id="Path_90" data-name="Path 90" d="M668.339,342.163a.291.291,0,0,1-.207-.086A7.945,7.945,0,0,0,661,339.706a10.338,10.338,0,0,0-3.562,1.266.292.292,0,0,1-.314-.493,10.728,10.728,0,0,1,3.765-1.347,8.53,8.53,0,0,1,7.661,2.532.292.292,0,0,1-.207.5Z" transform="translate(-464.89 -239.885)" fill="#9a3333"/>
                <path id="Path_91" data-name="Path 91" d="M420.638,187.33a10.97,10.97,0,0,1-3.291-.528,20.679,20.679,0,0,1-7.474-4.665,49.035,49.035,0,0,1-6.2-7.025,76.685,76.685,0,0,1-4.241-6.4c-1-1.681-1.568-2.79-1.574-2.8a.146.146,0,0,1,.26-.133,74.9,74.9,0,0,0,5.793,9.168,48.719,48.719,0,0,0,6.163,6.981,20.391,20.391,0,0,0,7.363,4.6,10.415,10.415,0,0,0,3.816.494A9.536,9.536,0,0,0,425.1,185.9a11.347,11.347,0,0,0,3.666-3.054,13,13,0,0,0,2.089-4.042,23.981,23.981,0,0,0,.781-9.363,46.281,46.281,0,0,0-1.521-8.168c-.583-2.111-1.1-3.475-1.11-3.488a.146.146,0,0,1,.273-.1c.005.014.532,1.391,1.119,3.515a47.372,47.372,0,0,1,1.531,8.221,24.268,24.268,0,0,1-.794,9.478A13.3,13.3,0,0,1,429,183.025a11.638,11.638,0,0,1-3.76,3.133,9.827,9.827,0,0,1-3.97,1.151Q420.956,187.33,420.638,187.33Z" transform="translate(-281.515 -111.507)" fill="#f9ce30"/>
                <path id="Path_92" data-name="Path 92" d="M471.044,255.06a1.316,1.316,0,1,1-1.808-.439,1.316,1.316,0,0,1,1.808.439" transform="translate(-331.59 -180.034)" fill="#006293"/>
                <path id="Path_93" data-name="Path 93" d="M464.269,254.529a.966.966,0,1,1-1.328-.323.966.966,0,0,1,1.328.323" transform="translate(-327.254 -179.777)" fill="#006293"/>
                <path id="Path_94" data-name="Path 94" d="M506.872,232.681a.966.966,0,1,1-1.328-.323.967.967,0,0,1,1.328.323" transform="translate(-357.401 -164.317)" fill="#006293"/>
                <path id="Path_95" data-name="Path 95" d="M479.6,254.045a1.316,1.316,0,1,1-1.808-.439,1.316,1.316,0,0,1,1.808.439" transform="translate(-337.642 -179.316)" fill="#006293"/>
                <path id="Path_96" data-name="Path 96" d="M497.673,244.794a1.316,1.316,0,1,1-1.808-.439,1.316,1.316,0,0,1,1.808.439" transform="translate(-350.433 -172.77)" fill="#006293"/>
                <path id="Path_97" data-name="Path 97" d="M503.119,238.519a1.316,1.316,0,1,1-1.787-.518,1.316,1.316,0,0,1,1.787.518" transform="translate(-354.266 -168.295)" fill="#006293"/>
                <path id="Path_98" data-name="Path 98" d="M488.186,248.989a2,2,0,1,1-2.746-.667,2,2,0,0,1,2.746.667" transform="translate(-342.824 -175.506)" fill="#006293"/>
                <path id="Path_99" data-name="Path 99" d="M429.638,191.349a7.327,7.327,0,0,1-1.416-.142,12.386,12.386,0,0,1-4.2-1.822,28.309,28.309,0,0,1-4.25-3.444,68.936,68.936,0,0,1-7.921-9.447c-1.361-1.9-3.486-5.014-5.884-9.038-1.435-2.407-2.3-4.021-2.307-4.037a.146.146,0,0,1,.258-.138c.009.016.87,1.626,2.3,4.028,1.321,2.217,3.412,5.58,5.871,9.017a68.644,68.644,0,0,0,7.886,9.4c3.076,2.963,5.871,4.708,8.308,5.188A6.414,6.414,0,0,0,431,190.9a6.169,6.169,0,0,0,2.523-1.29,10.707,10.707,0,0,0,2.983-3.99,15.226,15.226,0,0,0,1.165-4.985,33.191,33.191,0,0,0-1.4-11.1,67.315,67.315,0,0,0-3.448-9.434c-1.083-2.418-1.932-3.968-1.94-3.983a.146.146,0,0,1,.256-.141c.008.015.861,1.572,1.949,4a68.811,68.811,0,0,1,3.464,9.476,33.485,33.485,0,0,1,1.413,11.2,15.516,15.516,0,0,1-1.188,5.082,11,11,0,0,1-3.064,4.1,6.459,6.459,0,0,1-2.642,1.349A6.22,6.22,0,0,1,429.638,191.349Z" transform="translate(-285.619 -110.317)" fill="#fff"/>
                <path id="Path_100" data-name="Path 100" d="M559.786,227.387a15.143,15.143,0,0,1-2.111-.169,18.755,18.755,0,0,1-5.271-1.583A16.833,16.833,0,0,1,546.492,221a21.432,21.432,0,0,1-4.169-9.279.292.292,0,0,1,.573-.119,23.955,23.955,0,0,0,1.672,5.18,18.266,18.266,0,0,0,2.368,3.837,16.251,16.251,0,0,0,5.695,4.477,18.162,18.162,0,0,0,5.1,1.54,13.557,13.557,0,0,0,2.216.164.292.292,0,0,1,.023.584C559.963,227.385,559.9,227.387,559.786,227.387Z" transform="translate(-383.75 -149.566)" fill="#9a3333"/>
                <path id="Path_101" data-name="Path 101" d="M483.461,59.438s4.368,8.265,14.894,5.634,19.273-4.289,28.727,2.826c0,0-9.283-3.849-16.081-2.606s-13.158,3.874-19.883,2.193a10.281,10.281,0,0,1-7.658-8.046" transform="translate(-342.103 -42.058)" fill="#592220"/>
                <path id="Path_102" data-name="Path 102" d="M550.991,431.634a.291.291,0,0,1-.161-.048,24.82,24.82,0,0,1-6.853-7.112,43.689,43.689,0,0,1-4.281-8.491,59.841,59.841,0,0,1-2.216-7.117c-.444-1.819-.633-2.984-.635-3a.292.292,0,1,1,.577-.093c0,.011.189,1.16.628,2.961a59.508,59.508,0,0,0,2.2,7.046,43.082,43.082,0,0,0,4.222,8.371,24.239,24.239,0,0,0,6.684,6.942.292.292,0,0,1-.161.536Z" transform="translate(-379.875 -286.955)" fill="#d73930"/>
                <path id="Path_103" data-name="Path 103" d="M558.307,424.282a.219.219,0,0,1-.172-.356c.2-.255.61-.776,1.05-1.392a.219.219,0,0,1,.357.255c-.446.624-.857,1.151-1.063,1.41A.219.219,0,0,1,558.307,424.282Zm2.023-2.864a.219.219,0,0,1-.188-.331,3.945,3.945,0,0,0,.646-1.509.219.219,0,0,1,.438.03,4.412,4.412,0,0,1-.706,1.7A.22.22,0,0,1,560.33,421.418Zm.11-3.256a.219.219,0,0,1-.205-.142c-.173-.459-.379-1.013-.613-1.645a.219.219,0,1,1,.411-.152c.234.632.44,1.184.613,1.643a.219.219,0,0,1-.205.3Zm-1.22-3.29a.219.219,0,0,1-.206-.144c-.188-.51-.391-1.065-.6-1.648a.219.219,0,1,1,.412-.151c.213.583.416,1.137.6,1.647a.219.219,0,0,1-.206.295Zm-1.205-3.3a.219.219,0,0,1-.206-.144l-.6-1.649a.219.219,0,1,1,.412-.15l.6,1.649a.219.219,0,0,1-.206.294Zm-1.2-3.3a.219.219,0,0,1-.206-.145l-.6-1.65a.219.219,0,0,1,.412-.149l.6,1.649a.219.219,0,0,1-.206.294Zm-1.195-3.3a.22.22,0,0,1-.206-.145c-.368-1.018-.6-1.65-.6-1.65a.219.219,0,1,1,.413-.149l.6,1.649a.219.219,0,0,1-.206.294Z" transform="translate(-392.588 -285.086)" fill="#d73930"/>
                <path id="Line_5" data-name="Line 5" d="M10.7,1.436a.294.294,0,0,1-.047,0L-.755-.419A.292.292,0,0,1-1-.755.292.292,0,0,1-.661-1L10.743.855a.292.292,0,0,1-.047.581Z" transform="translate(160.909 144.12)" fill="#d73930"/>
                <path id="Path_104" data-name="Path 104" d="M578.2,609.752h-.013a.22.22,0,0,1-.207-.231c.03-.531.058-1.12.084-1.751a.219.219,0,0,1,.219-.21h.009a.219.219,0,0,1,.21.228c-.026.633-.054,1.224-.084,1.757A.219.219,0,0,1,578.2,609.752Zm.147-3.507h-.007a.219.219,0,0,1-.212-.226c.017-.553.034-1.142.05-1.752a.219.219,0,0,1,.219-.214h.006a.219.219,0,0,1,.214.225c-.015.611-.032,1.2-.05,1.755A.219.219,0,0,1,578.346,606.245Zm.089-3.509h0a.219.219,0,0,1-.215-.224c.011-.562.022-1.151.031-1.752a.219.219,0,0,1,.219-.216h0a.219.219,0,0,1,.216.223c-.01.6-.02,1.191-.032,1.754A.219.219,0,0,1,578.435,602.735Zm.057-3.507h0a.219.219,0,0,1-.217-.222c.007-.568.014-1.158.02-1.754a.219.219,0,0,1,.219-.217h0a.219.219,0,0,1,.217.221c-.006.6-.012,1.188-.02,1.756A.22.22,0,0,1,578.492,599.229Zm.034-3.51h0a.219.219,0,0,1-.218-.221c0-.571.008-1.161.011-1.754a.219.219,0,0,1,.219-.218h0a.22.22,0,0,1,.218.221c0,.593-.007,1.183-.011,1.755A.219.219,0,0,1,578.526,595.719Zm.018-3.509h0a.219.219,0,0,1-.219-.22c0-.574,0-1.164,0-1.754a.219.219,0,0,1,.219-.219h0a.219.219,0,0,1,.219.22c0,.591,0,1.181,0,1.755A.219.219,0,0,1,578.544,592.21Zm0-3.509a.219.219,0,0,1-.219-.219c0-.576,0-1.166,0-1.754a.219.219,0,0,1,.219-.22h0a.219.219,0,0,1,.219.219c0,.588,0,1.179,0,1.755A.219.219,0,0,1,578.549,588.7Zm-.007-3.509a.219.219,0,0,1-.219-.218c0-.578,0-1.168-.007-1.754a.219.219,0,0,1,.218-.22h0a.219.219,0,0,1,.219.218c0,.586.005,1.176.007,1.755a.219.219,0,0,1-.219.22Zm-.017-3.509a.219.219,0,0,1-.219-.218c0-.58-.008-1.17-.012-1.754a.22.22,0,0,1,.218-.221h0a.219.219,0,0,1,.219.218c0,.584.009,1.174.012,1.755a.219.219,0,0,1-.218.221Zm-.027-3.509a.22.22,0,0,1-.219-.217c-.005-.583-.011-1.173-.017-1.754a.219.219,0,0,1,.217-.222h0a.219.219,0,0,1,.219.217c.006.581.012,1.172.017,1.755a.22.22,0,0,1-.217.221Zm-.036-3.509a.219.219,0,0,1-.219-.217c-.007-.586-.014-1.177-.022-1.754a.22.22,0,0,1,.216-.222h0a.219.219,0,0,1,.219.217c.008.578.015,1.168.022,1.755a.219.219,0,0,1-.217.222Zm-.046-3.509a.219.219,0,0,1-.219-.216c-.009-.591-.018-1.18-.027-1.753a.22.22,0,0,1,.216-.223h0a.22.22,0,0,1,.219.216c.009.573.018,1.164.027,1.754a.219.219,0,0,1-.216.223Zm-.057-3.508a.219.219,0,0,1-.219-.215c-.011-.6-.022-1.188-.033-1.754a.219.219,0,0,1,.215-.224h0a.219.219,0,0,1,.219.215c.011.567.022,1.157.033,1.755a.219.219,0,0,1-.215.223Zm-.07-3.509a.219.219,0,0,1-.219-.214c-.014-.611-.028-1.2-.042-1.753a.219.219,0,0,1,.439-.011c.014.553.028,1.143.042,1.755a.219.219,0,0,1-.214.224Zm-.091-3.508a.219.219,0,0,1-.219-.213c-.02-.651-.04-1.24-.06-1.752a.219.219,0,0,1,.438-.017c.02.513.04,1.1.06,1.756a.219.219,0,0,1-.213.226Zm-.144-3.5a.219.219,0,0,1-.219-.2c-.019-.295-.038-.507-.056-.632-.054-.376-.114-.727-.184-1.073a.219.219,0,1,1,.43-.087c.072.355.133.714.188,1.1.019.138.039.355.059.665a.219.219,0,0,1-.2.233Zm-.642-3.443a.219.219,0,0,1-.214-.175,4.565,4.565,0,0,1-.021-1.823.219.219,0,1,1,.433.071,4.115,4.115,0,0,0,.017,1.662.219.219,0,0,1-.17.259A.213.213,0,0,1,577.411,553.684Zm-.091-3.468a.219.219,0,0,1-.207-.146,7.205,7.205,0,0,0-.718-1.354l-.091-.146a.219.219,0,0,1,.373-.232l.09.145a7.532,7.532,0,0,1,.759,1.438.219.219,0,0,1-.133.28A.216.216,0,0,1,577.32,550.216Zm-1.47-3.15h0a.219.219,0,0,1-.216-.222c0-.034,0-.069,0-.1.019-.242.008-.792-.034-1.636a.219.219,0,0,1,.438-.022,16.884,16.884,0,0,1,.033,1.693c0,.024,0,.048,0,.073A.219.219,0,0,1,575.85,547.066Zm-.132-3.5a.219.219,0,0,1-.219-.205c-.034-.523-.074-1.111-.12-1.749a.219.219,0,1,1,.437-.031c.046.639.087,1.228.121,1.752a.219.219,0,0,1-.2.233Zm-.251-3.5a.219.219,0,0,1-.218-.2c-.042-.549-.088-1.137-.136-1.749a.219.219,0,1,1,.437-.035c.049.612.094,1.2.136,1.75a.219.219,0,0,1-.2.235Zm-.277-3.5a.219.219,0,0,1-.218-.2c-.045-.559-.094-1.147-.144-1.75a.219.219,0,1,1,.437-.036c.05.6.1,1.191.144,1.75a.219.219,0,0,1-.2.236Zm-.291-3.5a.22.22,0,0,1-.218-.2c-.048-.564-.1-1.152-.149-1.749a.219.219,0,1,1,.437-.037c.051.6.1,1.185.149,1.749a.219.219,0,0,1-.2.237Zm-.3-3.5a.219.219,0,0,1-.218-.2q-.075-.866-.152-1.748a.219.219,0,1,1,.437-.038q.077.882.152,1.748a.219.219,0,0,1-.2.237Zm-.306-3.5a.219.219,0,0,1-.218-.2q-.077-.869-.155-1.747a.219.219,0,1,1,.437-.039q.078.877.155,1.748a.22.22,0,0,1-.2.238Zm-.31-3.5a.22.22,0,0,1-.218-.2q-.078-.873-.157-1.748a.219.219,0,1,1,.437-.039q.079.873.157,1.747a.219.219,0,0,1-.2.238Zm-.314-3.5a.219.219,0,0,1-.218-.2q-.079-.877-.158-1.747a.219.219,0,0,1,.437-.04q.079.87.159,1.747a.219.219,0,0,1-.2.238Zm-.318-3.495a.219.219,0,0,1-.218-.2q-.08-.881-.16-1.747a.219.219,0,0,1,.437-.04l.16,1.748a.219.219,0,0,1-.2.238Zm-.32-3.494a.219.219,0,0,1-.218-.2q-.082-.887-.161-1.748a.219.219,0,1,1,.437-.04q.08.86.161,1.748a.219.219,0,0,1-.2.239Zm-.323-3.494a.219.219,0,0,1-.218-.2l-.163-1.748a.219.219,0,1,1,.437-.041q.08.852.163,1.748a.219.219,0,0,1-.2.239Zm-.326-3.5a.219.219,0,0,1-.218-.2q-.085-.909-.164-1.747a.219.219,0,0,1,.437-.041l.164,1.747a.219.219,0,0,1-.2.239Zm-.328-3.494a.219.219,0,0,1-.218-.2c-.059-.631-.115-1.215-.165-1.747a.219.219,0,1,1,.437-.041c.05.532.105,1.116.165,1.747a.219.219,0,0,1-.2.239Zm-.33-3.493a.219.219,0,0,1-.218-.2c-.106-1.116-.166-1.744-.166-1.744a.219.219,0,1,1,.437-.042s.06.628.166,1.745a.219.219,0,0,1-.2.239Z" transform="translate(-404.287 -350.927)" fill="#d73930"/>
                <path id="Path_105" data-name="Path 105" d="M708.474,542.448a.219.219,0,0,1-.2-.139l-.508-1.288a.219.219,0,1,1,.408-.161l.508,1.288a.219.219,0,0,1-.2.3Zm-1.152-2.92a.219.219,0,0,1-.2-.139l-.644-1.633a.219.219,0,1,1,.408-.161l.644,1.633a.219.219,0,0,1-.124.284A.217.217,0,0,1,707.321,539.528Zm-1.288-3.265a.219.219,0,0,1-.2-.139l-.644-1.632a.219.219,0,1,1,.408-.161l.644,1.632a.219.219,0,0,1-.2.3ZM704.746,533a.22.22,0,0,1-.2-.139l-.644-1.632a.219.219,0,1,1,.408-.161l.644,1.632a.22.22,0,0,1-.2.3Zm-1.287-3.264a.219.219,0,0,1-.2-.139l-.643-1.632a.219.219,0,1,1,.408-.161l.643,1.632a.22.22,0,0,1-.2.3Zm-1.287-3.265a.219.219,0,0,1-.2-.139l-.643-1.632a.219.219,0,0,1,.408-.161l.643,1.632a.219.219,0,0,1-.2.3Zm-1.286-3.265a.219.219,0,0,1-.2-.139l-.643-1.632a.219.219,0,1,1,.408-.161l.643,1.632a.22.22,0,0,1-.2.3Zm-1.286-3.265a.219.219,0,0,1-.2-.139l-.643-1.633a.219.219,0,1,1,.408-.161l.642,1.633a.22.22,0,0,1-.2.3Zm-1.284-3.265a.219.219,0,0,1-.2-.139l-.642-1.634a.219.219,0,1,1,.408-.16l.641,1.633a.219.219,0,0,1-.2.3Zm-1.281-3.265a.219.219,0,0,1-.2-.138c-.188-.471-.43-1-.718-1.58a.219.219,0,1,1,.392-.2c.294.588.54,1.131.733,1.614a.22.22,0,0,1-.2.3Zm-1.549-3.147a.219.219,0,0,1-.192-.112c-.265-.475-.56-.984-.877-1.512a.219.219,0,0,1,.376-.225c.319.532.616,1.044.883,1.523a.219.219,0,0,1-.191.326Zm-1.8-3.013a.219.219,0,0,1-.186-.1c-.3-.471-.614-.967-.944-1.474a.219.219,0,1,1,.367-.24c.332.509.651,1.007.948,1.48a.219.219,0,0,1-.186.336Zm-1.914-2.941a.219.219,0,0,1-.182-.1c-.313-.467-.644-.955-.983-1.45a.219.219,0,0,1,.362-.248c.34.5.672.986.986,1.454a.219.219,0,0,1-.182.341Zm-1.983-2.895a.219.219,0,0,1-.18-.094c-.323-.463-.663-.945-1.009-1.433a.219.219,0,1,1,.358-.254c.347.489.687.972,1.011,1.436a.219.219,0,0,1-.18.345Zm-2.029-2.863a.219.219,0,0,1-.178-.091c-.327-.455-.672-.933-1.026-1.421a.219.219,0,1,1,.355-.258c.354.488.7.967,1.028,1.423a.219.219,0,0,1-.178.347Zm-2.061-2.84a.219.219,0,0,1-.177-.09c-.311-.425-.631-.861-1.038-1.414a.219.219,0,0,1,.353-.26c.407.554.727.99,1.038,1.415a.219.219,0,0,1-.177.349Zm-2.078-2.828a.219.219,0,0,1-.177-.089c-.339-.462-.728-.992-1.035-1.419a.219.219,0,1,1,.356-.256c.307.426.694.955,1.033,1.416a.219.219,0,0,1-.177.349Zm-1.946-2.908a.219.219,0,0,1-.2-.139c-.145-.366-.249-.726-.358-1.107-.054-.189-.111-.384-.172-.581a.219.219,0,0,1,.418-.132c.063.2.12.4.176.591.107.371.207.721.345,1.067a.219.219,0,0,1-.2.3Zm-1.217-3.281a.219.219,0,0,1-.19-.109l-.055-.092a4.565,4.565,0,0,0-1.108-1.094.219.219,0,1,1,.274-.342,4.863,4.863,0,0,1,1.211,1.211l.058.1a.219.219,0,0,1-.19.329Zm-2.541-2.4a.218.218,0,0,1-.154-.063,12.289,12.289,0,0,1-1.177-1.341.219.219,0,0,1,.349-.265,11.841,11.841,0,0,0,1.135,1.294.219.219,0,0,1-.154.376Zm-2.131-2.774a.22.22,0,0,1-.189-.107c-.286-.482-.567-1.007-.836-1.563a.219.219,0,1,1,.395-.191c.264.544.539,1.059.819,1.53a.219.219,0,0,1-.188.331Zm-1.539-3.149a.219.219,0,0,1-.2-.136c-.167-.409-.394-.953-.674-1.618a.219.219,0,0,1,.4-.17c.281.666.508,1.212.676,1.622a.22.22,0,0,1-.2.3Zm-1.359-3.234a.219.219,0,0,1-.2-.134c-.209-.492-.441-1.036-.688-1.614a.219.219,0,1,1,.4-.172c.247.579.479,1.122.689,1.615a.219.219,0,0,1-.2.305Zm-1.379-3.227a.219.219,0,0,1-.2-.133l-.692-1.612a.219.219,0,1,1,.4-.173l.692,1.613a.219.219,0,0,1-.2.306Zm-1.386-3.224a.219.219,0,0,1-.2-.133l-.695-1.611a.219.219,0,1,1,.4-.174l.695,1.611a.219.219,0,0,1-.2.306Zm-1.39-3.223a.219.219,0,0,1-.2-.132l-.7-1.61a.219.219,0,0,1,.4-.174l.7,1.61a.219.219,0,0,1-.114.288A.217.217,0,0,1,668.735,465.469Zm-1.392-3.221a.219.219,0,0,1-.2-.132l-.7-1.61a.219.219,0,0,1,.4-.174l.7,1.61a.219.219,0,0,1-.2.306Zm-1.394-3.22a.22.22,0,0,1-.2-.132l-.7-1.61a.219.219,0,1,1,.4-.174l.7,1.61a.219.219,0,0,1-.2.307Zm-1.4-3.219a.219.219,0,0,1-.2-.132l-.7-1.61a.219.219,0,1,1,.4-.175l.7,1.61a.219.219,0,0,1-.2.307Zm-1.4-3.219a.219.219,0,0,1-.2-.132l-.7-1.61a.219.219,0,0,1,.4-.175l.7,1.61a.219.219,0,0,1-.2.307Zm-1.4-3.218a.219.219,0,0,1-.2-.132l-.7-1.609a.219.219,0,0,1,.4-.175l.7,1.609a.219.219,0,0,1-.2.307Zm-1.4-3.218a.219.219,0,0,1-.2-.132l-.7-1.609a.219.219,0,1,1,.4-.175l.7,1.609a.22.22,0,0,1-.2.307Zm-1.4-3.218a.219.219,0,0,1-.2-.132l-.7-1.609a.219.219,0,1,1,.4-.175l.7,1.609a.219.219,0,0,1-.2.307Zm-1.4-3.217a.22.22,0,0,1-.2-.132l-.7-1.609a.219.219,0,0,1,.4-.175l.7,1.609a.219.219,0,0,1-.2.307Zm-1.4-3.218a.219.219,0,0,1-.2-.132l-.7-1.606a.219.219,0,0,1,.4-.175l.7,1.606a.219.219,0,0,1-.2.307Z" transform="translate(-463.652 -307.423)" fill="#d73930"/>
              </g>
            </g>
          </g>
        </g>
        <g id="Group_1558" data-name="Group 1558" transform="translate(40.791 99.474)">
          <g id="Group_1558-2" data-name="Group 1558" transform="translate(0 0)">
            <path id="Path_3185" data-name="Path 3185" d="M333.5,308.791,361.293,281H466.42V488.458H333.5Z" transform="translate(-332.543 -281.002)" fill="#fff"/>
            <path id="Path_3186" data-name="Path 3186" d="M357.627,312.458H329.838l27.789-27.789Z" transform="translate(-329.838 -283.707)" fill="#cecece"/>
          </g>
        </g>
      </g>
    </g>
  </g>
</svg>
