<svg xmlns="http://www.w3.org/2000/svg" width="20" height="20" viewBox="0 0 20 20">
  <path id="icn-semesta-binus" d="M17,20a2,2,0,0,1-2-2V17a2,2,0,0,1,2-2h1a2,2,0,0,1,2,2v1a2,2,0,0,1-2,2ZM9.5,20a2,2,0,0,1-2-2V17a2,2,0,0,1,2-2h1a2,2,0,0,1,2,2v1a2,2,0,0,1-2,2ZM2,20a2,2,0,0,1-2-2V17a2,2,0,0,1,2-2H3a2,2,0,0,1,2,2v1a2,2,0,0,1-2,2Zm15-7.5a2,2,0,0,1-2-2v-1a2,2,0,0,1,2-2h1a2,2,0,0,1,2,2v1a2,2,0,0,1-2,2ZM7.5,10A2.5,2.5,0,1,1,10,12.5,2.5,2.5,0,0,1,7.5,10ZM2,12.5a2,2,0,0,1-2-2v-1a2,2,0,0,1,2-2H3a2,2,0,0,1,2,2v1a2,2,0,0,1-2,2ZM17,5a2,2,0,0,1-2-2V2a2,2,0,0,1,2-2h1a2,2,0,0,1,2,2V3a2,2,0,0,1-2,2ZM9.5,5a2,2,0,0,1-2-2V2a2,2,0,0,1,2-2h1a2,2,0,0,1,2,2V3a2,2,0,0,1-2,2ZM2,5A2,2,0,0,1,0,3V2A2,2,0,0,1,2,0H3A2,2,0,0,1,5,2V3A2,2,0,0,1,3,5Z" fill="#fff"/>
</svg>
