<svg xmlns="http://www.w3.org/2000/svg" width="24" height="24" viewBox="0 0 24 24">
  <path id="icn-semesta-app-dark-24px" d="M20,24a2,2,0,0,1-2-2V20a2,2,0,0,1,2-2h2a2,2,0,0,1,2,2v2a2,2,0,0,1-2,2Zm-9,0a2,2,0,0,1-2-2V20a2,2,0,0,1,2-2h2a2,2,0,0,1,2,2v2a2,2,0,0,1-2,2ZM2,24a2,2,0,0,1-2-2V20a2,2,0,0,1,2-2H4a2,2,0,0,1,2,2v2a2,2,0,0,1-2,2Zm18-9a2,2,0,0,1-2-2V11a2,2,0,0,1,2-2h2a2,2,0,0,1,2,2v2a2,2,0,0,1-2,2ZM9,12a3,3,0,1,1,3,3A3,3,0,0,1,9,12ZM2,15a2,2,0,0,1-2-2V11A2,2,0,0,1,2,9H4a2,2,0,0,1,2,2v2a2,2,0,0,1-2,2ZM20,6a2,2,0,0,1-2-2V2a2,2,0,0,1,2-2h2a2,2,0,0,1,2,2V4a2,2,0,0,1-2,2ZM11,6A2,2,0,0,1,9,4V2a2,2,0,0,1,2-2h2a2,2,0,0,1,2,2V4a2,2,0,0,1-2,2ZM2,6A2,2,0,0,1,0,4V2A2,2,0,0,1,2,0H4A2,2,0,0,1,6,2V4A2,2,0,0,1,4,6Z" fill="#333"/>
</svg>
